<svg width="21" height="20" viewBox="0 0 21 20" fill="none" xmlns="http://www.w3.org/2000/svg">
<path fill-rule="evenodd" clip-rule="evenodd" d="M2.16671 9.16667H1.95837C1.79261 9.16667 1.63364 9.23252 1.51643 9.34973C1.39922 9.46694 1.33337 9.62591 1.33337 9.79167C1.33337 9.95743 1.39922 10.1164 1.51643 10.2336C1.63364 10.3508 1.79261 10.4167 1.95837 10.4167H2.16671V10.7125C2.16671 11.025 2.16671 11.2083 2.18004 11.4125C2.29837 13.2767 3.30504 14.9975 4.76504 16.1225C4.89587 16.2275 5.52587 16.6125 5.82337 16.7917C6.49501 17.1346 7.22416 17.3507 7.97421 17.4292C8.17837 17.45 8.30254 17.4542 8.51421 17.4625H8.52004C9.13671 17.4858 9.74004 17.5 10.2917 17.5C10.8434 17.5 11.4467 17.4858 12.0634 17.4625H12.0692C12.2809 17.4542 12.4059 17.45 12.6092 17.4292C13.359 17.3506 14.0878 17.1345 14.7592 16.7917C15.0417 16.625 15.6484 16.2592 15.8192 16.1225C17.2784 14.9975 18.2859 13.2758 18.4042 11.4125C18.4167 11.2083 18.4167 11.025 18.4167 10.7125V10.6808C18.4167 10.6308 18.4167 10.5783 18.4134 10.5308C18.411 10.4926 18.4071 10.4546 18.4017 10.4167H18.625C18.7908 10.4167 18.9498 10.3508 19.067 10.2336C19.1842 10.1164 19.25 9.95743 19.25 9.79167C19.25 9.62591 19.1842 9.46694 19.067 9.34973C18.9498 9.23252 18.7908 9.16667 18.625 9.16667H3.41671H2.16671Z" fill="#D61212"/>
<path opacity="0.5" d="M4.76496 16.1225C4.75314 16.1408 4.74229 16.1597 4.73246 16.1792L3.89913 17.8458C3.86171 17.9193 3.83921 17.9995 3.83294 18.0818C3.82666 18.164 3.83672 18.2467 3.86255 18.325C3.88838 18.4034 3.92945 18.4758 3.98341 18.5382C4.03737 18.6006 4.10315 18.6517 4.17695 18.6885C4.25075 18.7254 4.33111 18.7472 4.4134 18.7529C4.49569 18.7585 4.57829 18.7478 4.65642 18.7214C4.73456 18.6949 4.80669 18.6533 4.86865 18.5989C4.93062 18.5444 4.98119 18.4782 5.01746 18.4042L5.82413 16.7917C5.52579 16.6125 4.89579 16.2275 4.76496 16.1225ZM14.7591 16.7917L15.5658 18.405C15.6025 18.4784 15.6533 18.5439 15.7153 18.5977C15.7774 18.6515 15.8494 18.6925 15.9273 18.7185C16.0051 18.7445 16.0874 18.7548 16.1693 18.749C16.2512 18.7432 16.3311 18.7213 16.4045 18.6846C16.478 18.6479 16.5435 18.597 16.5972 18.535C16.651 18.473 16.6921 18.401 16.718 18.3231C16.744 18.2452 16.7544 18.163 16.7486 18.0811C16.7427 17.9992 16.7208 17.9193 16.6841 17.8458L15.8508 16.1792C15.841 16.1597 15.8301 16.1408 15.8183 16.1225C15.6483 16.2592 15.0408 16.6258 14.7591 16.7917ZM3.41663 3.44583C3.4167 3.12922 3.52703 2.82252 3.72867 2.57842C3.9303 2.33432 4.21065 2.16806 4.52155 2.10821C4.83246 2.04835 5.1545 2.09864 5.43235 2.25044C5.7102 2.40223 5.92651 2.64604 6.04413 2.94L6.16413 3.23833L7.29746 2.705L7.20579 2.47583C6.98074 1.91146 6.56601 1.44319 6.03298 1.15158C5.49994 0.859977 4.88194 0.763278 4.28531 0.878125C3.68867 0.992972 3.15073 1.31218 2.76404 1.78083C2.37735 2.24947 2.16609 2.83825 2.16663 3.44583V9.16666H3.41663V3.44583Z" fill="#D61212"/>
<path d="M6.16329 3.23834C5.64943 3.61405 5.25105 4.12617 5.01329 4.71667C4.67545 5.54561 4.66978 6.47282 4.99746 7.30584C5.02814 7.38369 5.07415 7.45459 5.13276 7.51433C5.19136 7.57407 5.26137 7.62144 5.33862 7.65361C5.41587 7.68579 5.4988 7.70212 5.58249 7.70165C5.66617 7.70117 5.74891 7.68389 5.82579 7.65084L10.7933 5.51167C10.9424 5.44758 11.0607 5.328 11.1232 5.17823C11.1858 5.02846 11.1876 4.86025 11.1283 4.70917C10.9693 4.29915 10.7302 3.92491 10.425 3.60828C10.1199 3.29165 9.75468 3.03898 9.35079 2.865C8.70239 2.58685 7.98028 2.5306 7.29662 2.705L6.16329 3.23834Z" fill="#D61212"/>
</svg>
