<svg width="25" height="20" viewBox="0 0 25 20" fill="none" xmlns="http://www.w3.org/2000/svg">
<g clip-path="url(#clip0_125_886)">
<path fill-rule="evenodd" clip-rule="evenodd" d="M3.5 4.16667C3.74493 4.16671 3.98134 4.27377 4.16437 4.46755C4.34741 4.66132 4.46434 4.92834 4.493 5.21795L4.5 5.35724V13.6912H11.5V7.73838C11.5 7.44677 11.59 7.16532 11.7527 6.9474C11.9155 6.72949 12.1397 6.59026 12.383 6.55615L12.5 6.54781H19.5C20.2652 6.54776 21.0015 6.89585 21.5583 7.52085C22.115 8.14585 22.4501 9.00052 22.495 9.90998L22.5 10.1195V19.6441C22.4997 19.9475 22.4021 20.2394 22.2272 20.4601C22.0522 20.6807 21.813 20.8135 21.5586 20.8313C21.3042 20.8491 21.0536 20.7505 20.8582 20.5557C20.6627 20.361 20.5371 20.0847 20.507 19.7834L20.5 19.6441V16.0724H4.5V19.6441C4.49972 19.9475 4.40212 20.2394 4.22715 20.4601C4.05218 20.6807 3.81305 20.8135 3.55861 20.8313C3.30416 20.8491 3.05362 20.7505 2.85817 20.5557C2.66271 20.361 2.5371 20.0847 2.507 19.7834L2.5 19.6441V5.35724C2.5 5.04148 2.60536 4.73866 2.79289 4.51538C2.98043 4.29211 3.23478 4.16667 3.5 4.16667ZM8 6.54781C8.66304 6.54781 9.29893 6.8614 9.76777 7.41959C10.2366 7.97778 10.5 8.73484 10.5 9.52424C10.5 10.3136 10.2366 11.0707 9.76777 11.6289C9.29893 12.1871 8.66304 12.5007 8 12.5007C7.33696 12.5007 6.70107 12.1871 6.23223 11.6289C5.76339 11.0707 5.5 10.3136 5.5 9.52424C5.5 8.73484 5.76339 7.97778 6.23223 7.41959C6.70107 6.8614 7.33696 6.54781 8 6.54781Z" fill="#D61212"/>
</g>
<defs>
<clipPath id="clip0_125_886">
<rect width="24" height="20" fill="white" transform="translate(0.5)"/>
</clipPath>
</defs>
</svg>
