<svg width="15" height="15" viewBox="0 0 15 15" fill="none" xmlns="http://www.w3.org/2000/svg">
<path d="M0.625015 1.25H5.98751L6.91689 5.43125L5.75439 6.59375C6.4376 7.65776 7.34209 8.56204 8.40626 9.245L9.56877 8.08312L13.75 9.0125V14.375H13.125C10.719 14.3787 8.36354 13.6849 6.34376 12.3775C4.85454 11.4137 3.5863 10.1455 2.62252 8.65625C1.31511 6.63647 0.621271 4.28099 0.625015 1.875V1.25ZM1.89189 2.5C1.99701 4.44998 2.61091 6.33845 3.67252 7.9775C4.54025 9.31807 5.68194 10.4598 7.02251 11.3275C8.66155 12.3891 10.55 13.003 12.5 13.1081V10.015L9.96689 9.4525L8.60814 10.8119L8.19376 10.5763C6.62047 9.68209 5.31793 8.37955 4.42377 6.80625L4.18814 6.39188L5.54752 5.03313L4.98501 2.5H1.89189Z" fill="#FEFEFE"/>
</svg>
