<svg width="25" height="25" viewBox="0 0 25 25" fill="none" xmlns="http://www.w3.org/2000/svg">
<path d="M6.28126 12.5313L8.36459 16.1458L5.72918 19.4583L2.08334 13.1458L6.28126 12.5313ZM17.7083 18.75V15.9271C18.625 15.5208 19.2708 14.6146 19.2708 13.5417C19.2708 12.9479 19.0625 12.3958 18.7188 11.9792L20.7708 10.7813C21.8229 10.1667 22.1875 8.82292 21.5729 7.77084L20.1354 5.27084C19.8423 4.76564 19.3614 4.39676 18.7976 4.24456C18.2337 4.09237 17.6325 4.16921 17.125 4.45834L8.65626 9.37501C7.66668 9.92709 7.32293 11.1979 7.89584 12.1979L9.45834 14.9063C10.0313 15.8958 11.3125 16.2396 12.3021 15.6667L14.2604 14.5417C14.5208 15.1563 15.0104 15.6563 15.625 15.9271V18.75C15.625 19.8958 16.5625 20.8333 17.7083 20.8333H22.9167V18.75H17.7083Z" fill="black"/>
</svg>
