<svg xmlns="http://www.w3.org/2000/svg" viewBox="0 0 512 512"><title>Artboard 104</title><g id="Forest"><circle cx="256" cy="128" r="106.66667" style="fill:#ff690b"/><path d="M256,64a64,64,0,0,0,0,128h0l.09993-.00008.03809-.00008.06315-.00015.04265-.00016.05729-.00022.04492-.00025.05631-.0003.04525-.00031.05534-.0004.04362-.00035.05827-.00051.04264-.00042.05794-.00059.04232-.00047.05794-.00069.0446-.00057.05664-.00076.04232-.00061.05957-.00089.04069-.00063.06185-.001.03808-.00065.06283-.00114.03874-.00071.06543-.00131.03352-.00067.07227-.00154.02832-.00061.08757-.002.012-.00028c.10286-.00244.20378-.00507.30664-.008l.00716-.00022.09375-.00275.01563-.00047.084-.0026.02344-.00075.0791-.00257.02083-.00071.07943-.00268.02376-.00084.0778-.00279.02344-.00085.07617-.00283.027-.001.07585-.00295.02311-.00091.07943-.00322.02083-.00085.08366-.0035.01627-.00069.08659-.00376.01433-.00064.097-.00439.0013-.00006q.56347-.02588,1.12338-.06138l.00032,0a64.124,64.124,0,0,0,7.60905-.94072l.026-.0048.06934-.0129.03776-.00706.055-.01037.05046-.00946.043-.00818.05794-.01105.03418-.00647.06478-.01243.027-.00523a21.33337,21.33337,0,1,0-8.07878-41.8949A21.75471,21.75471,0,0,1,256,149.33333a21.33333,21.33333,0,1,1,0-42.66666h0a21.13824,21.13824,0,0,1,12.31934,3.91017,21.33339,21.33339,0,0,0,24.77474-34.737,64.06043,64.06043,0,0,0-6.33236-3.97583l-.00163-.00084c-.08463-.04656-.16764-.0918-.2526-.138l-.00358-.002-.08008-.04339-.00456-.00238q-.125-.06765-.24967-.13449l-.00879-.00471-.07878-.042-.00293-.00155-.16894-.08987-.00261-.00139-.07877-.04163-.00977-.0052c-.084-.04423-.16634-.08747-.25033-.13134l-.00553-.00285-.07682-.04-.00944-.00485c-.05534-.02885-.112-.05817-.16765-.08685l-.00292-.00159-.07813-.04016-.01172-.006-.07422-.03809-.00879-.0045-.16471-.08417-.01367-.00684-.06869-.035-.01562-.00791-.165-.08318-.00716-.00354-.07259-.03641-.01888-.00948-.06674-.0334-.014-.007-.08236-.041-.00163-.00091-.07877-.03895-.01986-.00984-.0612-.03034-.02148-.01048-.069-.03409-.01172-.0057-.08041-.0394-.0179-.00882-.06282-.03061-.02344-.0115-.0586-.02852-.02408-.01165-.0739-.0358-.00586-.00288-.07715-.03727-.02832-.01364-.05371-.02577-.028-.01339-.05534-.02653-.02539-.01223-.07617-.03626-.02637-.01253-.05306-.02526-.03288-.01562-.04785-.02258-.03222-.01523-.058-.02739-.02116-.01-.07649-.03592-.02995-.014-.0485-.02268-.03549-.01652-.0472-.022-.0319-.01482-.07552-.035-.02539-.01185-.05371-.02481-.03353-.0154-.04687-.02161-.03483-.016-.05372-.02463-.02474-.01135-.07552-.0344-.0345-.01568-.04525-.0207-.03743-.017-.04069-.01842-.04037-.01826-.05176-.02335-.05306-.02381-.04589-.0207-.04135-.01844-.03776-.017-.04134-.01843-.03873-.01722-.06869-.03058-.04329-.01925-.04427-.0195-.03386-.01507-.04427-.01946-.03776-.01666-.04167-.01836-.03287-.01442-.08855-.03872-.02766-.01209-.04428-.01923L281.473,69.27l-.0459-.01992-.02962-.01282c-.057-.02454-.112-.04833-.16894-.07271l-.02767-.01195-.04981-.02126-.02637-.01126-.0524-.02251-.01921-.00807-.11719-.04975-.00814-.00351-.05468-.02313L280.849,69.003l-.05111-.02157-.02767-.0116q-.08641-.03639-.17317-.07249l-.02442-.0102-.05045-.02092-.0306-.0127-.04818-.02-.03027-.01257-.10905-.04486-.00814-.00336-.05339-.02189-.02506-.01023-.05339-.02188-.02441-.00994-.05306-.02154-.01758-.00723-.10677-.04326-.02344-.00938-.05176-.02085-.02669-.01075-.05111-.02058-.02766-.011q-.08838-.03542-.17741-.07074l-.02084-.00829-.05566-.022-.02083-.00832c-.06576-.026-.13086-.05152-.19662-.07729l-.00521-.002-.056-.02188-.02539-.00991-.054-.021-.01986-.00773-.18327-.07084-.02246-.00858-.05469-.021-.02311-.00888-.05664-.02156-.01107-.00427-.12923-.049-.00521-.00206-.05794-.02186-.02051-.0078-.05729-.02159-.01953-.00728c-.06413-.02407-.12891-.04839-.193-.07225l-.01107-.00406-.0586-.02178-.02148-.00792-.05762-.02137-.015-.0055c-.06511-.024-.12826-.04721-.19336-.071l-.01563-.00568-.06022-.022-.016-.00578q-.09862-.03593-.19791-.07152l-.00977-.00351-.06055-.02176-.01855-.00664-.05794-.02081-.01921-.00674q-.09667-.03453-.19369-.06875l-.012-.00432-.06152-.02165-.01726-.00607-.20605-.072-.00065-.00021-.06055-.02095-.02083-.00721-.05957-.02062-.013-.00452c-.06641-.02287-.13184-.04531-.19857-.068l-.013-.00452-.06218-.02109-.015-.00515c-.09082-.03076-.18294-.0617-.27376-.09207l-.01433-.00484-.06217-.02065-.0153-.00509c-.0651-.02166-.13216-.04382-.19727-.06528l-.01432-.00464-.05924-.01946-.02084-.00685-.05989-.0196-.01074-.00344c-.06674-.02178-.13444-.04367-.2015-.06524l-.014-.00459-.0625-.02-.01627-.00529-.20443-.06511-.00554-.00175-.0651-.02059-.013-.00406-.06543-.02054-.00781-.00251q-.10449-.0327-.209-.06513l-.00781-.00245-.06348-.01969-.01757-.00537c-.09017-.02784-.18165-.05581-.27214-.08327l-.02116-.0064-.06022-.01826-.013-.00387c-.06738-.02037-.13542-.04077-.2028-.06094l-.01237-.00367-.06348-.01886-.0166-.00487-.06282-.01862-.00814-.00242-.13249-.03892-.00976-.00292-.06055-.01767-.01953-.00565-.0612-.01786-.01628-.00473-.20475-.059-.00814-.00227-.0638-.01828-.01725-.00487-.06446-.01833-.00455-.00125c-.06771-.01927-.138-.039-.20606-.058l-.02051-.00576-.05957-.01664-.0192-.00532c-.068-.01895-.13477-.03736-.2028-.05609l-.01009-.00271-.06283-.01723-.01888-.00514-.0612-.01668-.01562-.00428c-.06771-.01833-.13411-.0363-.20182-.05442l-.01465-.004-.06218-.01654-.02018-.00541-.207-.0548-.00553-.00141-.0612-.01608-.02279-.0059-.06087-.01594-.013-.00336c-.06869-.01782-.13639-.03535-.20508-.05295l-.01465-.00369-.06315-.01615-.01693-.00433c-.06933-.0177-.13834-.0351-.20768-.05256l-.00879-.0022-.06054-.01519-.02279-.00564-.05827-.01456-.02311-.00572q-.09962-.02477-.19987-.04924l-.013-.00318-.06185-.01512-.02246-.00544-.0599-.01449-.01888-.00461-.12207-.02937-.014-.00336-.05729-.01367-.02636-.00629-.05762-.01365-.02507-.006-.05859-.01378-.0026-.00067-.1351-.03162-.01725-.004-.06087-.01416-.02083-.00489-.06218-.01429-.01595-.0037c-.06706-.01541-.13281-.03048-.19987-.04568l-.02213-.005-.05827-.01315-.02507-.00565c-.06771-.01527-.13509-.03028-.2028-.04533l-.01106-.00244-.0599-.01319-.02637-.00578-.05924-.013-.01628-.00359q-.10107-.022-.20215-.04385l-.01953-.00423-.0625-.01338-.01855-.004-.06446-.01373-.00585-.00125-.13737-.029-.01172-.00244-.0612-.01285-.02214-.00461-.06087-.01266-.02018-.00415c-.06738-.014-.13574-.028-.20313-.04178l-.01562-.00317-.0612-.01241-.02441-.00493-.06022-.01214-.01791-.00357-.13737-.02745-.00032-.00006-.06023-.01191-.02669-.00522-.05762-.01137-.02506-.00488q-.09765-.01916-.19564-.03794l-.02246-.00432-.05827-.01115-.02767-.00529-.05534-.01056-.02962-.00561-.12565-.02363-.00521-.001-.05827-.01082-.02766-.00516-.05534-.01026-.03223-.00594-.055-.01012-.01433-.00262-.11946-.02171-.02669-.00483-.05339-.0096-.03353-.006-.055-.00981-.02735-.00485c-.06152-.011-.12467-.02211-.18652-.0329l-.03483-.00606-.05208-.00905-.03353-.0058-.05306-.00916-.03841-.00657-.08138-.01387-.04558-.00775-.0472-.008-.04069-.00685-.04785-.008-.03841-.00635-.08073-.01339-.04785-.00792-.0459-.00751-.04167-.00675-.04785-.00782-.042-.00675-.04655-.00752-.04459-.00715-.0739-.01175-.04883-.00775-.04687-.00737-.04134-.00648-.04948-.0077-.03744-.00584-.05045-.00778-.03158-.00486-.09863-.0151-.03516-.00536-.05013-.00755-.04-.006-.0472-.00706-.04524-.00672-.07715-.01146-.04558-.0067-.04785-.007-.04231-.00618-.04525-.00654-.04557-.00656-.04493-.00645-.055-.00783-.0651-.00923-.04916-.00693-.04394-.00611-.04753-.00662-.04264-.00591-.05013-.0069-.03939-.00539-.08268-.01125-.04-.0054-.04883-.00656-.04525-.006-.04459-.00594-.04493-.00594-.05273-.00691-.06413-.00834-.055-.00714-.043-.00551-.0446-.00573-.04752-.006-.04427-.0056-.04427-.00555-.082-.01026-.03939-.00485-.05111-.0063-.04264-.00519L263.779,64.468l-.04329-.00526-.0599-.00718-.04362-.00519-.06933-.00821-.04265-.005-.04687-.00549-.0459-.00531-.04362-.005-.04622-.0053-.082-.00932-.03808-.00427-.05143-.00577-.0446-.00493-.04785-.0053-.04134-.00451-.05371-.00584-.0586-.00632-.06217-.00667-.0433-.00458-.04655-.00492-.04427-.00464-.05013-.00521-.041-.00423-.06088-.00625-.0625-.00633-.05045-.00509-.04037-.004-.05306-.00527-.04036-.004-.05566-.00545-.03451-.00332-.08431-.0081-.03971-.00377-.05371-.00506-.03907-.00368-.05371-.005-.03808-.00351-.07618-.00694-.03352-.003-.06771-.00607-.03972-.0035-.05208-.00458-.03971-.00347-.05729-.005-.03483-.003-.08627-.00734L261.405,64.225l-.057-.00473-.03971-.00328-.05534-.00452-.03678-.003-.07813-.00626-.012-.001-.0892-.007-.03515-.0027-.057-.00439-.03874-.003-.05891-.00443-.03191-.00239-.08789-.00648-.03157-.00228-.0612-.00443-.03646-.00259-.05859-.00413-.03418-.00238L260.431,64.151l-.0179-.00124-.09082-.0061-.03028-.002-.06185-.004-.03548-.00231-.06185-.004-.03125-.002-.09082-.00567-.01562-.001-.0778-.00474-.02865-.00172-.06706-.004-.02962-.00174-.07389-.00428-.01953-.00111L259.60742,64.1l-.02767-.00151-.06608-.00361-.0345-.00186-.05925-.00316-.03483-.00183-.07877-.00406-.03288-.00164-.071-.00354-.0332-.00163-.05989-.00289-.03581-.00171-.06641-.00311-.02637-.00121-.09082-.0041-.02636-.00116-.068-.003-.03092-.00133-.06673-.0028-.02832-.00117-.18588-.00736-.03027-.00115-.06543-.00244-.0306-.00111-.07194-.00255-.02213-.00078-.09375-.00321-.01758-.00057-.07617-.00247-.03028-.001-.06738-.00208-.02767-.00084-.08561-.00251-.00846-.00024-.09375-.00261-.02767-.00072-.06543-.00172-.03451-.00087-.06543-.0016-.02832-.00068-.09212-.00213-.01856-.00039-.07617-.00163-.02962-.0006-.06641-.00131-.03125-.0006-.07356-.00135-.02051-.00036-.0918-.00153-.028-.00044-.06771-.001-.03223-.00046-.0638-.00087-.0319-.0004-.09212-.0011-.01075-.00011-.084-.00087-.0293-.00027-.06575-.00057-.03223-.00026-.07-.0005-.02506-.00017-.09245-.00051-.02409-.00011-.07031-.00027-.03223-.00011-.06608-.00015-.02962-.00006L256,64Z" style="fill:#ff9757"/><path d="M256,234.66667A106.66666,106.66666,0,0,0,362.66667,128v-.17975l-.00033-.03277v-.09359l-.00032-.052v-.04234l-.00033-.04663v-.042l-.00033-.04914-.00032-.03971-.00033-.0509v-.03844l-.00032-.04929-.00033-.04385-.00032-.04414-.00033-.044-.00032-.04881-.00033-.03988-.00065-.05771-.00033-.03-.00065-.057-.00032-.03568-.00065-.06163-.00033-.02647-.001-.08758-.00032-.03382-.00065-.05851-.00033-.03231-.001-.05393-.00033-.04425-.00065-.04643-.00065-.0411-.001-.04842-.00032-.04-.001-.0507-.00065-.04-.00065-.047-.001-.04448-.00065-.04543-.00065-.043-.001-.04742-.00065-.04043-.001-.05072-.001-.04-.001-.04531-.00065-.04515-.001-.0424-.001-.04649-.001-.04689-.001-.04155-.001-.04809-.002-.08836-.001-.03892-.0013-.04549-.001-.04429-.001-.04041-.0013-.04966-.001-.04315-.0013-.04382-.0013-.04814-.001-.03923-.0013-.05064-.0013-.03946-.0013-.04576-.00131-.04555-.001-.044-.0013-.044-.00131-.04467-.0013-.04273-.00163-.048-.0013-.0426-.0013-.0434-.00163-.05-.0013-.0401-.00163-.0483-.0013-.04024-.00163-.04539-.0026-.07908-.00163-.05233-.0013-.03265-.00195-.05587-.00131-.03388-.00195-.05751-.0013-.03129-.00195-.05632-.00131-.03517-.00227-.05581-.00131-.034-.00195-.0533-.00163-.03743-.00195-.05217-.00163-.03853-.00163-.0472-.002-.0423-.00195-.0508-.00163-.0364-.00228-.05349-.0013-.03589-.0026-.05576-.00131-.0331-.00293-.0624-.001-.02584-.00814-.17851-.0013-.02783-.00261-.05975-.00195-.03778-.00228-.05113-.00195-.04242-.00228-.0449-.00228-.0437-.00228-.04551-.002-.04261-.00228-.048-.002-.03693-.00261-.05239-.00195-.03894-.0026-.04948-.002-.03875-.0026-.04824-.00228-.0423-.0026-.04673-.002-.04087-.00228-.04275-.00293-.04938-.00162-.03291-.00293-.05308-.00228-.04177-.00326-.05378-.00423-.08009-.00163-.02375-.00358-.06211-.0026-.04431-.00261-.04533-.00227-.04213-.00293-.04511-.00228-.04307-.00293-.04671-.00261-.04419-.0026-.04026-.00293-.05-.0026-.03976-.00293-.0464-.00261-.04267-.0026-.04258-.00326-.05163-.00228-.03587-.00325-.04967-.00261-.04024-.00325-.04822-.00261-.04044-.00292-.04692-.00293-.04128-.00293-.04429-.00293-.04523-.00066-.00775c-.0026-.04242-.00618-.093-.00911-.13537l-.00195-.02871-.00293-.04073-.00326-.04907-.00293-.04238-.00325-.0437-.00326-.04643-.00293-.04108-.00358-.04921-.0026-.03919-.00326-.04349-.00358-.047-.00293-.04114-.00358-.04732-.00293-.04-.00325-.04665-.00326-.044-.00358-.046-.00293-.03823-.00391-.05088-.00293-.04044-.00358-.04552-.00325-.04077-.00358-.04453-.00358-.04621-.00163-.023c-.00521-.067-.01074-.1355-.01628-.20243l-.0026-.03261-.00456-.055-.00228-.03043-.00423-.0504-.00325-.04124-.00391-.04443-.00325-.04045-.00424-.0499-.00293-.03713-.00455-.05255-.00261-.03211-.00455-.05341-.00326-.03717-.00423-.04968-.00326-.03572-.00423-.05164-.00325-.03707-.00456-.0496-.00326-.03642-.00455-.0511-.00326-.03656-.00423-.05074-.00293-.02938c-.00553-.06326-.01172-.13259-.01758-.1958l-.00293-.03256-.00521-.05462-.00293-.03172-.00488-.05243-.00325-.035-.00489-.0519-.00325-.03516-.00489-.04958-.00358-.03811-.00455-.05039-.00358-.03656-.00489-.0484-.00358-.03968-.00488-.048-.00391-.04049-.00423-.04431-.00423-.04321-.00456-.04635-.0039-.037-.00489-.05038-.00325-.03334-.00554-.05428-.00358-.03579-.00488-.04857-.00521-.05057-.00781-.07583-.00488-.04752-.00358-.03549-.00521-.05062-.00456-.04364-.00456-.04315-.00488-.04714-.00423-.038-.00521-.04987-.00391-.03851-.0052-.04706-.00424-.03845-.0052-.04978-.00391-.03636-.00553-.05237-.00326-.02966-.00651-.05927-.0026-.02437-.00684-.06189-.0026-.02124-.00684-.06429-.00228-.02059-.00749-.06667-.00065-.00385c-.012-.10821-.02409-.2135-.03645-.32163l-.00131-.01119-.00814-.07007-.00162-.01495-.00782-.06822-.00227-.0177-.00717-.06181-.00292-.0259-.00717-.05877-.00325-.0278-.00651-.0566-.00358-.02933-.00684-.05815-.00325-.02692-.00684-.05625L361.89,115.062l-.00683-.05562-.00293-.02523-.00749-.0614-.00228-.01888-.00846-.06887v-.00055c-.01335-.10787-.02637-.21244-.04-.32021l-.00195-.01444-.00684-.05477-.00423-.03339-.00684-.05406-.0039-.03-.00749-.05733-.00358-.0283-.00716-.05735-.00391-.02779-.00716-.05664-.00391-.03085-.00716-.0543-.00423-.03047-.00716-.05636-.00391-.02795-.00748-.05827-.00326-.0245-.00814-.06136-.00325-.02207-.00847-.06474-.0013-.0096c-.01823-.13526-.03711-.27269-.05566-.40778v-.00016l-.01009-.07221-.002-.0141-.00911-.06488-.00293-.021-.00879-.0635-.00293-.02185-.00879-.06085-.00358-.02474-.00879-.06228-.00293-.02044-.00911-.06417-.00293-.02-.00944-.06643-.00228-.01621-.00977-.06639-.0026-.01975-.01009-.06767-.00065-.0049c-.02767-.19009-.05534-.37749-.084-.56724l-.00195-.0124-.01009-.06691-.00293-.01912-.00912-.06049-.00423-.02688-.00911-.06022-.00358-.02183-.00944-.06122-.00391-.02565-.00944-.06055-.00293-.02016-.01009-.06494-.0026-.017-.01107-.07-.00033-.00278c-.03027-.19287-.06022-.37985-.09147-.57237l-.00065-.00466-.013-.07845-.00065-.00427-.013-.0799-.00033-.002-.013-.07945-.00065-.00456-.01237-.07462-.00195-.01219-.01237-.07361-.001-.00573-.013-.07766-.00065-.00364c-.04525-.27116-.0918-.54364-.13932-.81411l-.002-.01005-.013-.07473-.001-.00624-.01335-.07471-.00163-.01017-.013-.07286-.00163-.00919-.013-.07376-.00163-.00911c-.05826-.32489-.11816-.65228-.17936-.97614l-.00032-.002c-.06153-.32727-.124-.65116-.18881-.97736l-.00065-.00284-.0319-.161-.00032-.0021-.03255-.16134-.00033-.00166a105.832,105.832,0,0,0-5.23763-17.78709l-.00065-.00173-.029-.07379-.001-.00241-.028-.07086-.00326-.0084c-.09831-.24915-.19922-.50244-.29915-.75065v-.00008l-.029-.07151-.00228-.00595-.02572-.06337-.00684-.0164-.02506-.06171-.00553-.01369-.02474-.06142-.00651-.01575-.02539-.06264-.00521-.01245-.02442-.0599-.00911-.02262-.02376-.05772-.00391-.00919L354.722,87.531l-.00163-.0042c-.05013-.12217-.098-.23777-.14844-.35972l-.00618-.01454-.02051-.04954-.013-.03121L354.514,87.028l-.01367-.03311-.01823-.04362-.01433-.03458-.01855-.04376-.01335-.03246L354.417,86.796l-.01465-.035-.01757-.04175-.0153-.03632-.01661-.03955-.01725-.041-.0153-.03679-.0192-.04529-.0127-.0298-.02539-.06037-.00716-.01688-.02734-.06446-.00619-.01468-.03353-.07835-.00521-.0126-.02734-.06364-.01432-.03369-.01921-.04549-.01237-.029-.02116-.04879-.01237-.02889-.02213-.05147-.01009-.0236-.02279-.05332-.01237-.02867-.02116-.049-.01237-.02826-.02181-.05062-.01172-.027-.02278-.0529-.01042-.02437-.02279-.05237-.01172-.027-.02408-.05537-.00912-.02051-.03-.06875-.00325-.00769q-.06934-.15859-.139-.31693l-.0026-.00629-.03223-.07292-.00358-.00836-.02962-.06669-.00847-.01935-.028-.06293-.00423-.00988-.03093-.06966-.0039-.00877-.03158-.071-.00358-.00761-.03125-.07023-.00423-.00956-.03288-.07336-.0013-.00346c-.11882-.26518-.23763-.52824-.3584-.79228l-.00033-.00083-.03548-.07725-.00065-.002a21.33342,21.33342,0,0,0-38.79,17.77053A63.42586,63.42586,0,0,1,320,128a64.07243,64.07243,0,0,1-64,64h0a64.12348,64.12348,0,0,1-52.59733-27.52085,21.3334,21.3334,0,0,0-35.03874,24.34629,107.25459,107.25459,0,0,0,11.75814,14.14344l.00456.00462c.2998.30341.5983.6017.90169.9015l.00163.00172c.30338.2998.60579.59513.91276.89131l.00456.0044c.192.18511.3802.36553.57356.5492l.00261.00235c.11588.11021.22916.2175.3457.32719l.00423.0041c.07748.07313.15072.14193.22884.21483l.00261.00257.05534.05171.00455.00441c.09506.08878.18946.17681.28483.26524l.0101.00927.05371.05.00065.00067c.07845.0725.15364.14209.23209.21434l.00424.00382.05338.04913.01009.00948c.07357.06768.14974.1373.22331.20477l.00911.00824.05274.04833.00749.00667.05436.04967.0026.00224c.05892.05389.113.10308.1722.15685l.00423.00366.05469.04977.00684.00613c.099.08953.19238.174.29166.26319l.00358.00334.05567.04993.00618.0055c.07683.069.1569.14093.234.20974l.00065.00048c.11947.10655.23666.21092.35677.31694l.00359.00343c.09993.08834.19694.1737.2972.26168l.00195.002.05794.0507.00423.00376c.08041.07032.1543.13505.2347.20514l.00521.00455.05632.04909.00553.00476c.10059.08755.19466.16909.29557.25625l.00749.00639.05534.04784.00456.00384c.07812.0675.1569.135.23535.20229l.00749.00657.05306.04547.01269.01071q.11378.09754.22819.19471l.01139.00964.05306.04524.00847.007c.07877.06691.15657.133.23567.19969l.00489.00413.05469.04625.01106.00908.05469.04608.00293.00257c.0612.05153.11849.09969.18.15109l.002.00177.05468.04578.012.01.05013.042.01855.01562c.07194.05985.14942.12446.22136.18413l.01953.01622.04752.03961.01628.01341.05046.04186.00586.00471.10742.08887.01269.01049.04395.03621.02376.01961.04395.03621.02278.01882.0459.03756.01628.01338.16146.13253.0153.01241.04882.03975.01856.01522.0472.03847.01758.01454.168.13639.00781.00637.04785.03889.02213.01795.04753.03845.015.012.05209.04233.00423.00338.10514.0847.01791.0145.0459.037.02148.01734.04687.03769.01823.0145c.07813.06266.15365.1232.23177.18564l.01205.00939.05176.04145.01465.01151.05208.04148.012.0096c.07813.0623.15951.12684.23828.18892l.00684.00543.05924.04691.002.00153c.06022.04756.11621.09177.17676.13921l.01269.0099.05241.04115.0127.01.05338.042.01367.01074.05436.04238.00293.00231c.06316.04935.12012.094.1836.14323l.00456.00363.05891.04588.00684.00537.056.04341.01367.01059c.06055.04706.11621.09.17676.137l.00358.00284.05436.04177.01563.01224.054.04163.00651.00505.18164.1395.00554.0041.054.0416.014.01066.05339.04081.012.00912c.07943.0608.15821.12068.23763.18127l.0153.01145.05046.03834.0179.01347.05013.03815.01693.01287.17122.12935.01009.0076.05013.03773.02116.01581.05046.038.014.01056.054.0404v0l.111.08315.02116.016.04558.03388.02376.01781.04687.03493.02181.01622c.07748.05786.1543.11479.2321.17245l.01725.01288.05046.03737.01986.01475.0485.03568.01855.01385c.05632.04165.11524.08507.17188.1266l.00976.00725.05209.0382.02083.01517.05013.03677.01367.01.167.12221.02149.01561.04785.035.02181.01575.0485.03521.01953.01427c.07846.057.16016.11621.23861.17294l.01367.01.05371.03864.0153.011.054.03905.01172.00842c.05957.04295.11523.08286.1748.12569l.0153.011.04948.03537.02246.01609.05046.03612.01432.01019c.05729.04079.10775.077.165.11765l.026.01859.04558.0323.02343.01654.04981.03536.01953.01395.05143.03631.00749.00544.11653.08233.00847.006.05208.03664.01921.01366.05273.03713.01595.01108.05306.03737.014.00989.181.12676.00683.0046.05665.03955.016.0112.05436.03783.01172.00833.17024.11829.02344.01623.04883.03384.02214.01516.0485.03359.02311.016.18229.12566v.00012l.05371.03691.02084.01423.0498.03426.02116.01444.04948.034.02213.01494.10124.06936.014.00942.04622.03148.028.019.04231.0289.03223.02192.043.02918.026.0177.1582.10711.0293.01971.042.02846.0306.0206.0433.02917.02962.01995.04557.03079.00326.00214.12077.081.01139.00769.05241.03494.02083.01406.05176.03461.0192.01278.05144.03429.01855.01245.17155.11417.01986.013.05013.03321.02246.01505.05371.03556.00391.00248c.06119.0406.12142.08018.18294.12066l.02051.01356.05241.03445.0179.01172.056.03679.00879.00577c.06413.0422.12956.085.194.12708l.00163.00094.05761.0377.01628.01053.05469.03571.01692.011.05437.03533.0153.00989.10514.06824.01823.01174.04785.0311.027.01736.04492.02914.029.01856.04818.03119.01953.01255.09733.06259.02246.01443.03874.02478.03971.02556.03906.02494.03125.02013.04655.02971.02637.01685c.05632.036.10775.06873.16439.10466l.02376.01522.05111.03253.02018.01265.05566.03549.01335.0084.05762.0364.00911.00588.11556.073.01433.009.05045.03165.02409.01525.04915.031.026.01622.04915.03092.01627.01025c.05665.03559.11784.07373.17448.10921l.02344.01467.05078.0316.02311.01435.05111.03189.01758.011c.0599.03714.125.07762.1849.11464l.00878.00549.05665.03507.01888.01155.05566.03441.013.00813c.08561.05275.16927.10431.25521.15683l.01627.01008.05339.03258.02181.01341.05469.03333.00586.00365c.05989.03666.12076.07375.181.1103l.02994.01824.04493.02731.02864.0172.04916.0298.02115.01277c.0599.03645.11849.07179.17872.10812l.015.009.05338.03207.02181.01312.055.03306.0153.00929.05729.03417.00521.00322.12239.07319.01335.00812.054.03217.0205.01227.05241.03119.02442.01451.05208.031.00814.00484.18327.10865.02636.01553.04981.02948.02506.01465.05046.02971.01953.01165.17839.10475.0192.01134.05306.03109.02376.01376.05274.03092.0179.01045c.06087.03553.12044.07033.18164.10573l.01693.01.05534.03212.01986.01143.05273.03064.02311.01339c.0612.03528.12663.0732.18783.10837l.00748.00433.05046.02914.029.01652.05013.0289.02051.01165.057.03273.00944.00546.13118.07492.001.00054.05241.02994.02408.01372.05013.02871.02572.01459.05241.02981.02051.01154.18294.10373.015.00838.05469.03094.02181.0123.05241.0294.02539.01443.05274.02969.00195.00111.11979.06717.02214.01242.04589.02565.03353.01876.04655.02591.02962.01649.04753.02661.02637.01471.10449.058.016.009.055.03044.01953.01076.055.03053.02278.01255.05306.02938.02246.01244.17286.09505.02767.01524.05045.02763.02637.01452.04883.02672.02962.01617.17838.09737.01628.00885.0485.0265.03386.01829.04427.024.03255.01779.04655.02511.02637.01422.10937.05915.01172.00628.05436.02927.02279.01228.05143.02772.02637.01418.05371.02883.01562.0083c.06511.03494.12566.06744.19109.10225l.01334.00726.05957.03172.0153.00806.05892.0314.0179.00952.18848.09982.01563.00833.05013.02641.0306.01615.05045.02664.02311.01215.05534.02921.00912.00474.125.06559.012.0062.05534.029.02083.011.05534.02886.02311.012.05469.02851.0179.00937c.06283.03261.126.06551.18881.098l.016.00825.05794.0301.01888.00969.057.02946.01855.00946c.0625.03239.11784.06078.18066.093l.0267.01373.04622.02377.03548.01815.04688.02391.02767.01416.05241.02678.01985.01012.10352.05269.02506.01279.054.02751.02311.01173.054.02732.02344.01183.05761.02917.00814.0042.19531.09844.01986.01.05632.02818.02083.01051.056.02805.02278.01144c.06316.03165.124.062.1875.09351l.0153.00777.05469.02708.02572.01287.05436.02691.02279.01135.055.02717.01367.0068.11361.05624.02311.01126.05241.02594.02441.01206.05339.02622.029.01414.0498.0245.028.01373.11784.05764.00423.00208.05338.0261.0267.013.05306.02585.02734.01322.04883.02381.03548.01711.07682.03726.04265.02068.04264.02061.03744.01811.04264.02063.042.0202.04037.01936.03938.019.043.02069.03679.01758.08951.04293.02637.01255.05371.02565.026.01251.05144.02442.02994.01432.05079.02416.03059.0145.09831.04657.02214.01049.0511.02422.03158.01489.04687.02215.03483.0165.04525.02132.03972.01859q.082.03875.16471.07729l.0332.01564.043.02.03939.01844.04622.02147.03321.01555.04687.02173.02735.01271.096.04469.03223.01491.0485.02243.02995.01381.05274.02432.02636.01217.05534.02556.01009.00458.12761.05871.012.00552.057.02615.02246.01022.05664.02588.02441.01114.05371.02461.02507.01129.11849.05391.01009.00463.04883.02215.03287.01494.0459.02068.03874.01758.04525.02046.0319.01429.05111.02306.00585.0026.11068.04983.03906.01753.04525.02025.03646.01629.04622.02061.03483.01569.04851.0216.03353.01489.08463.03772.03679.01636.04817.02132.03418.01507.05013.02218.028.01248.05371.02363.02539.01121.12239.05393.00554.00235.05013.02209.03385.01473.04558.02.03808.01671.0459.02.03743.01644.04428.01926.04947.02147.0726.03164.03548.01544.04883.02116.0319.01381.05143.0222.03027.01309.05176.02225.03125.01358.08236.03532.04362.01876.04427.019.03776.01624.04622.0197.03939.01686.04232.01814.04459.01895.06706.0286.04883.02078.04362.01838.03906.01666.0446.01887.04069.01721.04427.01871.03678.01548.04655.01959.0114.0049.11393.0478.03222.01353.04883.02054.03451.01441.04785.02.03581.015.04785.01993.0345.01444.09864.0409.02181.00912.05631.02325.027.0112.05371.02228.02865.01177.05208.02154.03092.01269.10482.04311.02149.00882.05208.02136.03125.01287.0472.01933.03841.01569.04883.01989.02539.01036.18913.07683.02344.00944.05631.02276.02474.01.05566.02245.02865.01154.054.02183.013.00528.11.04409.03451.01384.04818.01936.0345.01377.05208.02072.02995.012.05143.0205.028.011.10221.04058.02963.01173.04785.019.03483.01376.0472.0186.04166.0164.043.017.03711.01453.17416.06832.03255.01274.05436.0212.02637.0102.05534.02162.02474.0096c.06315.02457.1302.05061.19368.07507l.01986.00768.05729.02216.02767.01061.05534.02131.02409.00928.05859.02257.0166.00638.11751.045.02246.00849.05339.02039.0319.01223.04785.01817.03809.01449.04915.01868.03028.01149.11783.04456.0101.00373.04915.01865.03809.01429.04785.018.0332.01242.05208.01961.03223.0121.179.06683.0319.012.05273.01953.0306.01135.05339.01991.03548.013.04525.01676.05273.01944.0651.0241.04818.01772.04134.01521.04362.01593.04265.01573.04589.01681.04134.01507.0433.01585.08236.03.03711.01349.04882.0177.03679.01334.04915.01781.03678.01336.04721.017.03678.01334.08822.03166.03906.01412.0498.01792.0319.01133.05339.01915.03288.01177.05208.01855.03027.01076.05437.01944.01627.00581.12728.04506.01367.005.0599.02115.02636.00928.05209.01836.03515.01243.05306.01861.02149.0075.12272.04306.01335.0047.05371.01874.03418.012.05013.01745.03287.0114.05372.01873.026.009.19108.066.027.0094.05468.01871.0306.01062.055.01886.02929.01.054.01849.02344.00808.10807.03684.03125.01061.04818.01636.04.01358.04329.01472.04622.01566.04362.01465.02963.01007.109.03668.02408.00807.04851.01631.03938.01323.04786.01593.03776.0126.04915.01643.03255.01081.09245.03073.04.01336.04622.01529.03744.01233.05143.017.03483.0115.05274.01737.02669.00875c.06152.02023.12532.04119.18717.06132l.03353.011.05111.01662.03581.01167.04915.016.03711.012.05176.01679.02116.00692.124.04005.01432.00457.057.01834.0306.00988.05468.01752.02865.00914.05729.01837.02474.00783.10645.03392.03157.01008.0485.01536.03809.01209.04785.01523.03906.01234.04981.01564.03809.012.04687.01478.05892.01855.06575.0206.0433.01354.04427.01385.04329.01349.04427.01375.04786.01492.03971.01235.06185.01908.05631.01746.05079.01572.04524.01385.04167.01285.0485.015.03711.01135.05013.01538.03613.011.0879.02678.04231.01292.05176.01572.03158.00962.05664.01713.02994.00909.05534.01669.03093.00929.18587.05591.0332.00985.05339.016.0345.01036.04916.01464.042.01246.04687.01391.03549.01056.09961.02939.02962.00875.05241.01543.03678.01087.05143.01506.03223.00944.05566.01634.02539.00743.1058.03083.0332.00967.05274.01526.03352.00973.05339.01548.03353.00971.05371.01554.03385.00969c.0625.018.126.03626.18881.05415l.029.00832.05273.01506.03711.01052.0472.0135.04557.01288.04428.01256.03678.01044.095.02682.03548.01.04883.01377.04.01122.05046.01415.03418.00957.054.01507.02669.00747.10092.028.04.01116.04589.01275.04069.01124.04916.01358.041.01124.04785.01322.03679.01007.09831.0269.03287.00906.04883.01331.03939.01069.05046.01376.03906.01053.0472.0128.04036.01092.18425.04964.03157.0085.05306.01422.03809.01017.04818.01286.041.01094.0485.01286.04883.013.07064.01869.05013.01321.04655.01228.043.01132.04687.01231.04.01049.05046.01324.042.01094.0599.01565.06738.01756.04329.01122.04688.01213.04427.01141.04492.0116.04525.01166.04557.01173.04525.01165.03548.00908.09733.02484.03516.009.05241.01332.03515.00894.05664.01437.02735.007.05859.01483.02474.0062.10319.026.04134.01036.05078.01272.03418.00851.056.01393.03288.00818.055.0137.03158.00781.1071.02654.02832.00694.05208.01281.03743.00924.05176.01266.03939.00971.04622.0113.04753.01155.05176.01259.07389.018.04753.01145.041.01.04948.01189.041.00994.05045.01206.03483.00836.05437.013.03157.0075.0957.02281.04265.01014.04948.01176.04.00943.04752.0113.04395.01036.04752.01115.04916.01152.06217.01455.0599.014.04492.01046.04752.01108.04265.00988.04883.01133.04134.00951.05631.013.03581.00825.08366.01924.0459.01049.04362.01.04492.01027.04915.01114.04167.00946.05371.01223.03613.00815.07943.01789.04134.00932.05794.013.03907.00873.05013.0112.04394.00981.04655.01036.04623.01025.041.0091.08854.01955.04232.00937.04655.01021.04492.00988.0459.01.04948.01085.03841.00833.05957.013.03418.00738.085.01843.03906.00843.05274.01135.03906.00836.05567.012.03808.00817.05241.01119.03971.00845.08627.01834.02962.00626.06315.01334.03809.008.0524.011.041.00867.05241.01091.04.00842.08821.01833.00944.002.08171.017.0319.00654.0625.01289.03353.007.05957.01219.03353.00688.071.01454.02214.00448.09017.01835.02994.00606.0612.01237.03646.00737.05762.0116.03711.0075.05989.012.03125.00627.08952.01779.02735.00549.06575.013.03613.00712.05437.01074.04036.008.05566.01088.03646.00717.08985.01754.01334.00258.07683.015.03743.00724.05566.01073.03939.00759.058.01118.03222.00619.07031.01343.02865.00551.08366.01592.03971.00748.05013.00954.04623.00869.0459.00866.04687.00884.04655.00872.04362.00813.08691.01619.03353.00625.05892.01088.04167.00769.05013.00926.042.00775.05208.00951.04232.00774.06738.01231.06055.011.04688.00846.04817.00871.04655.0084.043.00774.05534.00992.03516.00628.07454.01332.02539.00448.082.01457.04037.00715.05273.00925.03971.007.05534.00976.04.007.05306.00929.04.007.08464.01468.041.00706.05534.00953.03776.00651.05534.00945.03874.00666.06152.01046.03125.0053.09017.01531.026.00437.06836.01149.0332.00558.0599.01.03809.00634.05924.00991.03255.00539.071.01173.04589.00759.06706.011.03776.00619.05469.00891.041.0067.055.00895.03939.00635.05826.00941.03451.00555.08919.01432.03255.00518.06023.00964.04134.00656.05143.00816.042.00661.05339.0084.04069.0064.08919.014.02409.00378.06868.01064.03516.00545.06152.00952.03418.00524.06348.00976.03027.00462.09375.0143.00391.0006.08919.0135.0319.00485.0625.00937.03581.00536.05664.00851.04037.006.0677.01005.02344.00347.09082.01342.03288.00482.0638.00933.03418.005.05827.00846.03874.00565.06282.00907.0306.00442.09082.013.03255.00464.0599.00854.04134.00591.05176.00731.04394.00622.056.00785.03483.0049.08431.01178.03256.0045.069.00955.0371.00512.05534.00762.04134.00567.057.00778.03678.005.06706.0091.03125.00427.08626.01162.03418.00454.05957.008.04135.00549.05338.00708.04037.00536.05924.0078.03483.00459.09082.01187.0306.004.06152.008.043.00555.05209.00671.04134.00532.05761.00735.03581.00459.085.01074.0433.00545.05338.00674.04785.006.04818.006.04264.0053.05437.00675.041.00506.07129.00873.02474.003.08659.01056.03809.00462.05826.007.03972.00477.05436.00653.04036.00482.06218.00742.03222.0038.08985.0106.03678.00431.0586.00686.03743.00432.06022.007.03548.00412.069.00791.02507.0029.09408.01071.02441.00277.07031.00794.03744.0042.05566.00624.042.00466.05436.006.042.00464.05827.00642.05794.00634.06771.00739.0345.00373.06152.00666.03679.004.06152.00657.03353.00358.0752.008.02018.00211.0957.01008.02051.00214.07422.00772.03288.0034.06347.00656.03451.00352.071.00725.02311.00236.09636.00977.0153.00151.08073.00811.02864.00286.06869.0068.0306.003.06608.00648.0332.00324.09375.00912.00293.0003.0918.00882.03027.0029.06641.00632.03548.00338.05729.0054.04069.00383.06608.00615.028.00262.09408.00868.02832.0026.06478.0059.03939.0036.057.00513.03972.00359.0664.00592.027.00241.09408.00832.02864.00251.06576.00577.04069.00351.05371.00466.04264.00366.057.00488.03874.00329.09147.00774.01757.00147.07943.00662.02962.00247.06641.00549.03646.003.0612.005.0345.0028.07064.0057.0332.00266.08464.00671.04036.0032.05339.00419.043.00336.05827.00451.03678.00286.07064.0054.02376.00182.09342.00707.03451.0026.06152.00459.04.003.05762.00423.03809.00279.05957.00434.03873.00282.09082.00652.03028.00213.06282.00445.04265.003.057.004.03906.00271.05827.004.03776.0026.07422.005.03158.00213.082.00548.03874.00257.05891.00388.03679.00241.06185.004.03678.00236.07292.00466.02181.00139.09082.00574.04655.0029.05078.00313.0446.00275.05078.0031.04492.00272.057.0034.03874.00233.0905.00533.03255.00191.06608.00384.03255.00187.06511.00372.03645.002.06315.00355.03353.00187.0752.00415.03776.00208.0791.00426.0306.00164.0651.00346.03614.00192.0664.00347.02995.00153.08691.00446.00944.00049.098.00492.02506.00124.07129.00351.03548.00174.0625.003.03516.00169.06575.00312.03321.00156.09505.00441.01465.00067.082.00372.02962.00133.06934.00307.03287.00145.06511.00283.0332.00143.096.00407.00358.00016.0931.00386.03125.00126.06543.00266.03581.00143.06315.0025.03581.0014.08789.00338.00618.00025.09733.00365.03093.00113.06608.00243.03808.00137.05892.0021.03809.00134.07064.00244.026.0009.09538.00321.028.00093.06869.00224.0371.00119.05958.00189.04134.00129.05957.00183.0358.00109.08822.00262.03027.00089.07357.00212.03451.001.06217.00173.03874.00106.06315.0017.03353.00088.19466.00494.02637.00064.06868.00165.03939.00091.06022.00137.03581.00082.07194.00157.026.00057.09538.002.02832.00058.069.00138.03548.00068.06478.00123.03515.00065.06511.00118.0332.00059.09473.00162.02278.00037.07422.0012.03809.00058.06055.00091.03711.00055.0651.00092.0332.00047.19239.00244.03515.0004.06348.00071.03808.0004.0612.00063.03614.00036.07747.00072.01953.00018.09635.0008.03158.00023.06673.00049.03483.00024.06576.00041.0345.00021.07.00037.028.00015.09538.00041.028.0001.07129.00025.03418.0001.06347.00015.03809.00007.0651.0001.03223,0,.09733.00005Z" style="fill:#d34000"/><path d="M256,64l-.0918.00007-.02181,0-.08919.00022-.015.00006-.08041.00031-.02018.00009-.08822.00049-.02181.00014-.07747.00055-.01595.00013-.08919.00078-.02214.00021-.08463.00087-.00782.00008-.08951.00107-.02442.0003-.08919.0012-.00749.00011-.08594.0013-.0192.0003-.09017.0015-.01693.0003-.07845.00143-.01953.00036-.08919.00176-.01953.00041-.08106.00174-.013.00027-.08887.002-.02246.00054-.08724.00213-.01139.0003-.08431.0022-.02051.00055-.09082.00252-.01107.00031-.08333.00244-.01758.00053-.09049.0028-.016.0005-.08594.0028-.00977.00032-.09147.00311-.0192.00068-.18164.00661-.02409.0009-.08887.00346-.00879.00035-.08528.00345-.01823.00074-.0905.0038-.015.00064-.07975.00348-.01791.00079-.08952.004-.01823.00084-.08365.00392-.0101.00046-.09049.00438-.02018.001-.08952.00446-.01074.00057-.08073.00415-.02214.00116-.08756.00465-.01726.00093-.07877.00431-.01791.001-.08984.00505-.016.00092-.08561.005-.00879.00051-.09245.00549-.016.001-.09245.00563-.001.00007-.09115.00571-.01953.00124-.09147.00586-.00619.00042-.08626.00566-.01758.00116-.09082.00613-.01269.00086-.08366.00578-.014.001-.08984.00632-.01823.00131-.08692.00626-.00521.00038-.09016.00665-.02149.00158-.08724.00659-.014.00107-.07845.006-.02148.00169-.08757.00687-.01627.00128-.07845.00629-.01726.00139-.08723.00712-.02247.00186-.07649.00636-.01465.00124-.08692.00736-.02311.002-.08886.00765-.00066.00008-.08789.00773-.02311.002-.08756.00784-.01237.00112-.0791.00721-.02116.00194-.08659.00806-.01823.00169-.07682.00727-.01726.00164-.08821.00845-.01791.00175-.084.0082-.00879.00086-.08724.00864-.02311.00229-.08626.0087-.01465.00149-.0765.00784-.02148.00222-.08692.009-.0166.00172-.07878.00832-.01627.00172-.08659.00929-.02181.00236-.08008.0087-.00944.00105-.08756.00962-.02279.00256-.08822.00987-.00195.00023-.08691.00985-.02214.00254-.08594.00988-.01627.00192-.0765.00891-.01856.00217-.08821.01044-.016.0019-.0791.00948-.01563.00188-.08724.01062-.0192.00236-.08366.01027-.00716.0009-.08692.01083-.02213.0028-.08562.01082-.01562.002-.07682.0098-.01953.00249-.0879.01142-.01367.00178-.08008.0105-.01562.002-.08594.0114-.02181.00293-.07975.01075-.00944.00125-.08594.0117-.02409.00327-.08593.01183-.00684.001-.0804.01116-.02474.00348-.08366.01175-.01791.00253-.07421.01057-.01986.00284-.08561.01235-.01888.00272-.07552.011-.01628.00238-.08431.01237-.02376.00356-.07845.01166-.015.00221-.07845.01181-.027.00408-.08073.01228-.02213.0034-.06771.01038-.02409.00371-.082.01272-.02441.00385-.068.01064-.02148.00342-.08138.01288-.02735.00436-.07194.01152-.014.00221-.08431.01366-.02311.00375-.08529.01392-.01107.00184-.07454.01225-.02735.00455-.0817.01358-.01921.00323-.06966.0117-.02344.004-.08268.01407-.02051.0035-.07226.01237-.01953.00335-.08073.01394-.02735.00479-.07715.01347-.01529.00265-.07422.01307-.029.00514-.07845.014-.02376.00427-.06543.01174-.02637.00471-.07779.01412-.0293.0053-.06413.0117-.02116.00389-.0791.01458-.03092.00574-.06446.012-.02636.00493-.07325.01374-.03027.00569-.07715.01462-.02376.00455-.06055.01154-.03223.00615-.07584.01456-.029.00563-.05892.01144-.0293.00568-.0778.01522-.02734.00539-.0625.01235-.02409.00476-.0778.01548-.02962.0059-.06446.013-.03938.00788-.0573.0116-.03483.00707-.07259.01482-.03385.00693-.05046.01034-.0345.00714-.0739.0153-.03157.00653-.05632.0118-.03027.00628-.07422.01567-.03255.00683-.06641.0141-.02083.00441-.07259.01555-.03158.00672-.07454.01607-.02767.006-.05762.01254-.03353.00725-.07356.0161-.0306.00675-.057.01253-.02734.006-.0778.01722-.02865.00642-.05924.01323-.03386.00755-.06933.01561-.02963.00669-.068.01545-.03288.0075-.06022.01376-.0293.00666-.07649.01763-.029.0067-.05567.01289-.03157.00732-.07455.01737-.0306.00719-.05794.01367-.02539.006-.07585.01789-.03157.00751-.06478.01546-.02832.0068-.06608.01586-.03093.00744-.07584.0183-.02442.00591-.05892.01435-.03125.00761-.07454.01825-.02767.00678-.06022.0149-.026.00639-.07617.01891-.0293.00729-.05957.01488-.03288.00826-.06608.01661-.03255.00823-.06185.01564-.04069.01033-.05339.01357-.03483.00894-.07031.018-.03516.00907-.04817.01246-.03386.00868-.07161.01867-.03451.00895-.05241.01376-.03092.008-.07324.01928-.03028.008-.06315.0167-.03353.00892-.06022.01609-.0319.00848-.07357.01976-.02832.00761-.054.01462-.03288.00885L239.155,66.24l-.02865.00777-.05566.01517-.02962.00815-.0726.01991-.0319.00884-.05534.01528-.04329.012-.05566.01552-.03483.00971-.06608.01849-.03386.0095-.05306.01494-.03418.00967-.06868.01941-.03809.01081-.04525.0129-.03515.01006-.06836.01962-.03776.01083-.04785.01379-.04167.012-.05892.01715-.03809.011-.05436.01586-.04329.01264-.05111.01506-.03776.01111-.06543.01931-.03906.01152-.04167.01233-.03971.01184-.06608.01965-.04.01205-.03972.01194-.05468.01643-.05111.0154-.041.01237-.03841.01174-.06478.01964-.03971.01214-.04069.01241-.04427.01367-.0638.01959-.03451.01059-.04524.014-.02833.00884-.08007.02489-.02865.00887-.07064.02217-.03613.01126-.04557.01434-.03548.01122-.07032.02219-.03287.01045-.04655.0148-.03353.0107-.07129.02274-.0319.01031-.0459.01468-.03386.011-.07226.02328-.0319.01036-.07813.02539-.028.00907-.04557.0149-.03256.01066-.06575.02155-.03972.013-.04394.01453-.0332.011-.07032.02336-.03678.01221-.04264.01423-.03483.01159-.0726.02427-.02929.00994-.0459.01539-.03288.01111-.07422.02506-.02929.01-.07162.02432-.03548.01214-.04525.01547-.02929.01006-.0778.02672-.027.00934-.0472.0163-.02963.01018-.07552.02618-.03125.0109-.04524.01576-.04395.01544-.06282.022-.0254.00889-.15494.05471-.027.00968-.08366.02971-.02246.008-.04981.01782-.0192.00694-.09082.03259-.01791.00647-.05143.01859-.01432.00507-.09408.03411-.0205.00746-.16081.05878-.01628.006-.10286.03794-.00554.002-.0524.01934-.01823.00682-.09213.03424-.0166.00617-.054.02013-.00358.00138-.1058.03957-.01335.005-.16406.062-.01237.00459-.16536.06307-.01042.004-.10384.03984-.00781.003-.05176.02-.01888.00717-.09343.03627-.01367.0053c-.05468.02121-.11.04275-.16438.06409l-.01042.00409-.16439.06469-.01237.00487-.16439.06517-.00944.00376-.10482.04193-.00585.00233c-.05437.02177-.10775.04329-.16179.0652l-.01693.00684-.16308.0661-.00749.00315c-.05664.02306-.11165.04556-.168.06877l-.00358.00142A64.2392,64.2392,0,0,0,202.14258,93.4112a21.33337,21.33337,0,1,0,35.8789,23.09014A21.30638,21.30638,0,0,1,256,106.66667,21.33333,21.33333,0,0,0,256,64Z" style="fill:#ffceaf"/><path d="M96,42.66667A31.8996,31.8996,0,0,0,65.84375,64.3724C65.20443,64.3151,64.65365,64,64,64a21.33334,21.33334,0,0,0,0,42.66667H96a32,32,0,0,0,0-64Z" style="fill:#e4dbff"/><path d="M448,64c-1.30208,0-2.52865.26823-3.80078.38281A63.83977,63.83977,0,0,0,320,85.33333c0,.651.17188,1.25391.19141,1.89974a31.92026,31.92026,0,0,0,10.47526,62.10026H448A42.66667,42.66667,0,1,0,448,64Z" style="fill:#ffd300"/><path d="M448,64c-1.30208,0-2.52865.26823-3.80078.38281A63.83977,63.83977,0,0,0,320,85.33333c0,.651.17188,1.25391.19141,1.89974a31.92026,31.92026,0,0,0,10.47526,62.10026H448A42.66667,42.66667,0,1,0,448,64Z" style="fill:#d1c2ff"/><path d="M444.03255,64H426.66667a21.33334,21.33334,0,1,0,0,42.66667,42.53106,42.53106,0,0,1,42.10026,37.056A42.53091,42.53091,0,0,0,448,64c-1.30208,0-2.52865.26823-3.80078.38281C444.15365,64.25,444.07943,64.13151,444.03255,64Z" style="fill:#c1aeff"/><circle cx="458.66667" cy="96" r="10.66667" style="fill:#f1ecff"/><path d="M320,85.3334a63.99993,63.99993,0,0,0,63.99994,63.99993H384A21.33331,21.33331,0,0,0,405.33331,128v0A21.33331,21.33331,0,0,0,384,106.66667h0a21.33331,21.33331,0,0,1-21.33331-21.33332v0A21.33331,21.33331,0,0,1,384,64h0a21.33331,21.33331,0,0,1,21.33331,21.33331v0a21.33332,21.33332,0,0,0,21.33332,21.33332h0A21.33331,21.33331,0,0,0,448,85.33335v-.00008a63.99994,63.99994,0,0,0-63.99994-63.99994h-.00012A63.99994,63.99994,0,0,0,320,85.33327Z" style="fill:#c1aeff"/><circle cx="362.66667" cy="64" r="21.33333" style="fill:#f1ecff"/><rect x="320" y="106.66667" width="85.33333" height="42.66667" rx="21.33331" ry="21.33331" style="fill:#c1aeff"/><circle cx="330.66667" cy="117.33333" r="10.66667" style="fill:#f1ecff"/><path d="M490.66667,379.76041a42.81011,42.81011,0,0,0-14.28206-31.89967C449.24792,323.427,381.43253,277.33333,256,277.33333S62.75208,323.427,35.61539,347.86074a42.81011,42.81011,0,0,0-14.28206,31.89967V448A42.66667,42.66667,0,0,0,64,490.66667H448A42.66667,42.66667,0,0,0,490.66667,448Z" style="fill:#005e05"/><rect x="234.66667" y="426.66667" width="149.33333" height="64" rx="31.99997" ry="31.99997" style="fill:#002c00"/><rect x="85.33333" y="362.66667" width="149.33333" height="64" rx="31.99997" ry="31.99997" style="fill:#002c00"/><rect x="85.33333" y="384" width="149.33333" height="64" rx="31.99997" ry="31.99997" style="fill:#002c00"/><rect x="384" y="384" width="106.66667" height="64" rx="31.99997" ry="31.99997" style="fill:#002c00"/><path d="M256,341.33333h-.3112c-.08333.00017-.16471.00017-.248.00017h-.03646l-.236.00032h-.03743l-.24707.00033-.05957.00016c-.16634.00016-.335.00049-.501.001h-.06217c-.083.00032-.16439.00048-.2474.00065l-.03222.00016c-.07683.00016-.14519.00033-.222.00065l-.06152.00016-.24024.00066-.05534.00032c-.07682.00016-.16276.00049-.23958.00081h-.01335l-.25423.001-.05338.00033-.24707.001-.03809.00017-.223.00114-.05436.00032c-.08269.00033-.15593.00065-.23828.00114l-.06381.00033-.222.0013-.02767.00016c-.08236.00033-.15625.00081-.23893.0013l-.07748.00049-.23372.00147-.03679.00016-.2194.00146-.06022.00049-.24674.00163-.03288.00032-.24316.00179-.02442.00017-.25325.00195-.04883.00049-.25293.002-.01172.00017c-.07617.00065-.16829.0013-.24479.00211l-.05013.00033-.24447.00228-.04687.00032-.23308.00212-.02376.00032-.25586.00244-.04264.00033q-.25488.00269-.50977.00521l-.05436.00065-.24739.0026-.02833.00033c-.082.001-.153.00179-.2347.0026l-.03776.00049-.24511.00277-.058.00065-.21614.0026-.03874.00049-.23958.00293-.0625.00081c-.08171.001-.16244.002-.24414.0031l-.01986.00016-.24088.00325-.03777.00049c-.08138.001-.16731.00212-.249.00326l-.04492.00065-.24349.00342-.01139.00016c-.08757.00114-.16634.00228-.25391.00358l-.04883.00065-.24837.00358-.02214.00033-.22981.00342-.05111.00081c-.08138.00114-.16146.00244-.24284.00374l-.0472.00065c-.06966.00114-.15267.00245-.22233.00342l-.03711.00065-.25163.00407-.03646.00049c-.08723.00147-.17089.00293-.25813.00423l-.00163.00017c-.08691.0013-.1709.00276-.25814.00423l-.03092.00049c-.08692.00162-.1722.00292-.25912.00455l-.02213.00033-.24154.00423-.03125.00049-.24544.00439-.05209.001-.50227.00928-.041.00081c-.08659.00163-.16667.00309-.25326.00488l-.02083.00033c-.08105.00163-.15657.00309-.2373.00456l-.03874.00081-.25033.00488-.03255.00065c-.17317.00358-.33724.00684-.51009.01042l-.0459.001-.24642.005-.03125.00082c-.07487.00146-.15071.00309-.22558.00472l-.04427.001c-.08073.00163-.16341.00342-.24414.00521l-.04232.001-.23959.00521-.013.00032c-.08626.002-.16373.00375-.24967.00554l-.04557.00113c-.08627.002-.16309.00359-.24935.0057l-.0166.00033c-.07455.00162-.15723.00358-.23177.00537l-.05144.00114-.23828.00569-.0498.00114c-.06869.00163-.13347.0031-.20215.00489l-.05534.0013-.23275.00553-.05631.00147-.23959.00586-.028.00065-.21712.00553-.06153.00147-.23177.00586-.05175.0013-.21387.00553-.03581.001-.24251.00635-.0459.00113-.49317.01319-.054.00146-.24219.00668-.02637.00065-.23177.00635-.0345.001-.24805.007-.03288.001c-.08561.00228-.16276.00455-.248.007l-.00847.00016-.248.00716-.04395.0013-.24772.00716-.01693.00049c-.07975.00228-.15592.00456-.23535.007l-.03776.00114c-.07975.00228-.16016.00472-.23958.00716l-.04753.0013-.24219.00733-.00358.00016-.24837.00765-.04622.0013c-.16439.005-.32813.01026-.49252.01546l-.0459.00131c-.0791.0026-.16243.0052-.24153.00765l-.03353.00114-.23112.00748-.02767.00082-.235.00765-.05891.00195-.23633.00765-.01986.00065-.22754.00765-.0459.00146-.23958.008-.03841.0013-.21778.00749-.041.0013c-.07324.0026-.15886.00553-.2321.008l-.05631.00195-.23926.0083-.00163.00016c-.07877.00261-.1582.00554-.237.0083l-.056.002-.23047.00813-.04785.00163-.19922.00716-.05794.00212c-.07291.0026-.15137.00537-.22428.00814l-.06087.00211-.224.00814-.013.00049-.23568.00879-.05632.00211-.23177.00863-.04036.00147c-.06738.00244-.14779.00553-.21517.00813l-.04069.00147-.23242.00879-.05534.00211-.21582.0083-.02507.001-.22428.00863-.07389.00293c-.07259.00293-.14812.00586-.22071.00862l-.04492.00179-.19792.00782-.0625.00244-.21972.00879-.06478.0026-.18587.00749-.05469.00211-.22038.009-.06738.00276c-.07259.00293-.15137.00619-.22363.00928l-.04167.00163-.20247.0083-.057.00244-.22266.00928-.0625.0026-.19694.0083-.03938.00163-.22689.0096-.06153.00261c-.0778.00341-.15267.00667-.23046.00992l-.01954.00082-.21875.00944-.05859.0026c-.07227.0031-.15527.00668-.22721.00993l-.04167.00179-.21224.00928-.03646.00163c-.0778.00341-.153.00667-.23079.01025l-.05436.00228c-.07194.00325-.14616.00667-.21843.00976l-.03288.00147-.22135.01009-.05534.00244-.22266.01009-.05794.00261-.18685.00862-.05468.00245-.2142.00992-.08105.00375-.17741.0083-.06185.00276-.20671.00977-.07519.00342-.209.00993L221,342.15755l-.15885.00765-.08269.00391-.20377.00976-.07943.00375-.17513.00846-.056.00277-.22168.01074-.05794.00293c-.07162.00342-.151.00732-.22233.0109l-.04916.00245-.19173.00944-.05469.0026c-.07682.00391-.14485.00732-.22168.01107l-.05924.00293-.19206.00976-.04785.00228c-.07129.00358-.14844.00749-.21973.01123l-.0664.00326-.2207.01123-.0254.0013-.21484.01107-.04785.00244c-.07682.00391-.15267.00781-.22949.01188l-.04232.00212-.20117.01058-.0472.00244-.22819.01188-.04558.00244-.23079.012-.01758.001-.2194.01172-.05338.00277-.22136.01188-.05924.00309-.18588.01009-.0498.00261-.22656.01237-.04753.0026c-.07617.00407-.15039.00814-.22656.01237l-.00912.00049c-.07617.00407-.14876.00814-.22493.01237l-.06348.00342-.22.0122-.04264.00228-.194.01091-.05469.00293c-.07617.00439-.15169.00862-.22754.01285l-.03809.00212-.21451.012-.02963.00163-.23014.01319-.04329.00244c-.08138.00455-.153.00862-.23438.01334l-.02116.00114-.22461.013-.03255.00179-.23177.01351-.04395.00244q-.10547.00636-.21126.01237l-.027.00163-.22135.01286-.06413.00374-.21745.01286-.03678.00212-.19531.01172-.06088.00358-.22363.01334-.03222.002c-.07553.00439-.14226.00846-.21778.013l-.02669.00162-.22917.01384-.04817.00293-.22266.01351-.02962.00179-.20866.01269-.05306.00326-.22136.01367-.04655.00293-.18652.01156-.056.00341-.20768.01286-.07292.00456-.19531.01221-.03711.00244-.20866.013-.06185.00391c-.06966.00439-.15006.00944-.21972.014l-.03679.00228-.18978.012-.06087.0039-.21452.01384-.05175.00325-.19532.01253-.04752.0031-.20573.01334-.06771.0044-.21029.01367-.05273.00342c-.06413.00423-.11524.00765-.17936.01172l-.05762.0039-.21354.014-.05827.00391-.19238.01269-.03776.00244c-.06934.00472-.14388.00961-.21289.01416l-.06836.00456-.21713.01465-.01562.001c-.069.00472-.13639.00927-.20573.01383l-.06152.00423c-.069.00456-.14226.0096-.21127.01432l-.055.00375-.17448.01188-.06575.00439-.20346.01384-.0664.00472c-.07455.005-.13965.00944-.21387.01465l-.0293.00195-.192.01335-.06641.00455-.20182.014-.07324.00521-.16179.01123-.06445.00456-.20247.01416-.071.005c-.06868.00472-.13183.00928-.20052.01416l-.029.002-.19206.01367-.08561.006-.19043.01367-.07454.00537-.15788.01123-.06836.00489-.2028.01465-.06576.00472-.19531.01416-.02376.00179c-.07389.0052-.14388.01041-.21777.01578l-.057.00407-.21257.01563-.0472.00342-.18457.0135-.056.00424-.20833.0153-.06055.00455-.20214.015-.0153.00114c-.07357.00537-.14454.01074-.2181.01627l-.06055.0044-.21354.01611-.03516.0026-.18392.01384-.06966.00521c-.068.00521-.13639.01041-.20443.01546l-.05371.00407-.182.01383-.04623.00358-.20377.01563-.07422.00553-.18164.014-.07357.0057-.16764.01286-.07064.00553-.20117.01546-.058.00456-.18912.01465-.0306.00244-.21224.0166-.06576.00521-.19466.01514-.04492.00358-.1862.01481-.07226.00569c-.06771.00521-.13151.01042-.19922.01579l-.06055.00472-.15788.01253-.06868.00554-.19955.016-.06966.00553-.16048.01286-.09245.00749c-.05208.00423-.1136.00927-.16569.01334l-.07682.00619-.194.01579-.06315.0052-.16732.01351-.05306.0044-.19954.01627-.07943.00651-.15983.01319-.06185.005-.17871.01465-.09961.0083-.15169.01254-.10482.00878-.13867.01156-.07748.00635-.19629.01644-.0677.00569-.15495.013-.06608.00554-.19792.0166-.06641.0057c-.06705.00569-.138.01172-.20507.01725l-.03646.00309c-.06185.00537-.124.01058-.18588.01579l-.05371.00472-.20345.01725-.06738.00586c-.05143.0044-.11165.00944-.16309.014l-.05371.00456-.20247.01741-.0651.00554-.18425.016-.06282.00553-.17123.01481-.06478.0057-.20182.01758-.05566.00488c-.05632.00488-.11133.0096-.16765.01465l-.05924.00521c-.06673.00569-.13444.01171-.20117.01757l-.06446.0057-.16341.01449-.08008.007-.17741.01579-.05436.00472c-.0664.006-.13834.01237-.20475.01823l-.05664.005-.1709.0153-.05241.00472-.19987.0179-.06933.00618-.17513.01579-.03418.0031-.19825.0179-.07356.00667-.194.01758-.06478.00586-.13867.01269-.09115.00831-.18229.0166-.07324.00667-.14779.01367-.07487.00684-.18.0166-.07585.007-.16081.01481-.11035.01025-.12337.01156-.08919.0083-.17806.01644-.09115.00863-.12305.01155-.08007.00749-.17318.01627-.09961.00928-.13705.013-.11458.01074-.13216.01254-.08561.00814-.18327.01741-.07552.00716-.13672.013-.07585.00733-.18619.01774-.07422.00716c-.05046.00472-.1071.01025-.15756.01514l-.09049.00862-.14909.01449-.08366.008-.17871.01742-.08561.0083-.12467.012-.07878.00765-.181.01758-.08333.00814-.14388.01416-.10026.00977-.14095.01383-.09668.0096-.17286.01693-.07584.00765-.13281.013-.07943.008-.17741.01757-.085.00847-.12988.01286-.12142.0122-.13412.01335-.09082.00911-.17318.01742-.07454.00749-.13151.01318-.085.00863-.17774.0179-.07617.00781-.151.0153-.05892.00586-.18522.01888-.08008.00814-.18424.01888-.05046.00521-.14909.0153-.08366.00846-.181.01872-.06575.00667-.14844.0153-.07129.00733-.17676.01839-.08723.00911-.12989.01335-.12044.01269-.125.013-.08659.009-.17318.01806-.08658.00912-.12207.01285-.0879.00928-.16145.01693-.11068.01172-.09766.01025-.13346.01416-.126.01335-.08919.00944-.179.019-.06282.00667-.14421.01547-.07975.00846c-.05892.00635-.11589.01253-.17513.01872l-.0791.00862-.137.01465-.08268.009-.15918.01709-.08431.00912-.13769.015-.12012.01286-.12468.01367-.07779.0083-.17839.01953-.07454.00814-.15072.01644-.04981.00537-.18033.01986-.08594.00944-.182.02-.03971.00423-.1683.01856-.06445.00716-.18457.02051-.07292.008-.12207.01367-.09049.00993-.16406.01823-.085.0096c-.05371.00586-.1058.01172-.15918.01774l-.06739.00749-.16015.0179-.06511.00733-.18164.02051-.0791.00879-.12435.014-.0765.00879-.17154.01937-.08757.00993-.14062.01579-.085.00976-.14811.01677-.082.00944-.17741.02018-.06022.007-.14681.01676-.06315.00716-.18424.02116-.07032.00814-.13574.01562-.10091.01172-.14681.01693-.07585.00879-.165.019-.08951.01042-.11915.01383-.0804.00944c-.05306.00619-.11295.013-.166.01937l-.09929.01156-.10644.01237-.099.01172-.16211.01888-.069.00814-.18653.022-.03971.00472-.15657.01839-.07064.00846c-.05762.00668-.1237.01465-.18164.02149l-.06055.00716-.14941.01774-.05892.007c-.0625.00732-.12207.01448-.18425.022l-.06445.00765-.15169.01807-.10026.012-.12468.01481-.07975.00961-.17057.0205-.082.00993-.12434.015-.07194.00862-.17513.02116-.07813.00944-.13444.01628-.10384.01269-.12663.0153-.08463.01026c-.05241.00651-.11589.01416-.1683.0205l-.08431.01042-.10254.01253-.11751.01433-.14258.01741-.08626.01058-.11035.01367-.12989.01595-.11881.01465-.08236.01009-.13834.01709-.12175.01514-.10058.01253-.08822.01091-.1709.02116-.07357.00927-.123.0153-.1237.01547-.10938.01367-.09733.0122-.12565.01579-.12109.01514-.10254.01286-.09766.01237c-.05208.00651-.10709.01334-.15885.02l-.08985.01123-.09277.01172-.14225.01806-.112.01416-.09115.01156-.11588.01481-.13379.01693-.10156.013-.09571.0122-.15267.01953-.10188.013-.08789.01123-.13021.01676-.11361.01465-.10645.01367-.09667.01237-.15235.01969-.083.01075-.11132.01432-.12045.01562-.12565.01628-.08431.01107-.13965.01806-.1097.01433-.10579.01383-.07389.00961-.18816.02457-.06673.00879-.11133.01465-.15039.01969-.08528.01123-.09994.01319-.09179.012-.15137.02-.09831.013-.0931.01221-.16243.02165-.08041.01058-.10514.014-.10644.01416-.14812.0197-.06445.00862-.362.04834-.08887.01189-.138.01855-.111.015-.09473.01286-.096.01286-.15723.02116-.0752.01025-.10254.01384-.11.01481-.14258.01937-.07813.01058-.18847.02571-.05436.00749-.12142.01644-.04753.00651-.20052.02734-.05762.008-.11849.01611-.03678.00521c-.06934.00944-.13965.019-.209.02865l-.071.00976-.17448.02409-.07942.0109-.097.01335-.09993.01384-.14812.0205-.07617.01058-.11751.01628-.01335.00179-.24316.03385-.0472.00668q-.18994.02636-.37923.05289l-.03907.00537-.18066.0254-.08626.012-.1045.01465-.09537.01351-.14388.02018-.08659.01221-.09929.01416-.14681.02067-.10026.01416-.07519.01074-.166.0236-.07649.01074-.10775.0153-.08041.01156-.15592.02213-.09147.013-.09147.01319-.14551.02083-.10417.01481-.08268.01188-.111.016-.13086.01888-.0931.01335-.09082.01318-.15267.022-.083.012-.10156.01465-.1429.02067-.08952.013-.10352.015-.0765.01107-.15625.02279-.08854.01286-.098.01432-.13672.02-.098.01432-.09538.014-.08659.01253-.15169.0223-.08887.013-.08789.013-.14323.021-.10742.01579-.068.01009-.17188.02539-.07291.01074-.10677.016-.08236.01221-.1569.02327-.07031.01042-.10319.0153-.13965.02083-.10612.01579-.06706.01009-.16829.02507-.08008.012-.10059.01514-.05859.00879-.19792.02962-.04883.00732-.10807.01628-.08952.01351-.15755.02376-.0638.0096-.181.02735-.06152.00927-.10775.01644-.084.0127-.14225.02165-.08789.01334-.09049.01367-.14649.02246-.10189.01547-.06217.00944-.18425.02832-.06608.01009-.098.015-.07519.01156-.16862.02588-.06869.01058-.09765.015-.1084.01677-.1364.021-.067.01042-.15853.02441-.08561.01335-.10092.01562-.06673.01026-.17448.02718-.06217.0096-.10612.0166-.07389.0114-.16179.02539-.07487.01155-.15332.02409-.08138.0127-.11133.01741-.04622.00716c-.06315.01009-.1276.02019-.19108.03011l-.05892.00928-.09961.01563-.08757.01383c-.0524.00814-.10026.01579-.15266.02409l-.07227.01139-.151.02393-.08594.01351-.10254.01627-.071.01123-.13672.02165-.09961.016-.08789.014-.10612.01676-.13346.02133-.07585.012-.17383.02783-.06347.01009-.10222.01644-.05924.00944-.195.03141-.04329.00684-.10352.01676-.06543.01042-.19466.03141-.03353.00538c-.11719.01888-.2321.03743-.349.05647l-.06706.01075-.33593.05452-.07422.01221-.16016.026-.0651.01058-.10808.01758-.07291.01188-.15755.02588-.06153.01009c-.07031.01139-.13574.02213-.20605.03369l-.02767.00456-.10254.01676-.07357.01221-.16569.02718-.06315.01042-.1097.01806-.026.00423c-.07.01172-.1403.02328-.21029.03483l-.04687.00782-.12663.02083-.11328.01888-.09245.0153-.08952.01481-.15853.02637-.05631.00944-.11263.01872-.03841.00634c-.06446.01091-.12826.02149-.19271.03223l-.05241.00879-.10742.0179-.03321.00554-.19531.03271-.07357.01237-.15657.02637-.07129.01188-.09831.0166-.06673.01123-.18424.03109-.03353.0057c-.11524.01936-.22852.03857-.3431.05794l-.06608.01123-.18034.0306-.04785.00814-.10775.01823-.05241.00895-.16992.029-.06576.01123-.10123.01725-.098.01677-.1224.02083-.082.014-.126.02164-.09668.01661-.10221.01757-.055.00944-.16342.02816-.07584.013-.08789.01514-.12077.02083-.09212.016-.11068.019-.06738.01171-.14551.02523-.08073.014-.10287.01774-.08951.01563-.11687.02034-.08723.01514-.11426.01985-.09473.01661-.10221.01774-.08106.01416-.14192.0249-.07292.01269-.10482.0184-.08138.01432-.13281.02327-.07715.01351-.10286.01807-.1071.01888-.11393.02018-.06153.01074-.15169.02686-.07.01237-.10286.01823-.07813.01383-.12988.02295-.09017.016-.08366.015c-.03938.00683-.08268.01464-.12174.02164l-.10677.01888-.069.01237-.14681.02621-.07292.013-.09277.01644-.07845.014-.14453.02587-.068.01221-.11914.02132-.08333.015-.12045.02164-.07259.013-.11458.02068-.11068.02-.07715.01384-.08626.01562-.12923.02328-.095.01725-.08106.01465-.11458.02067-.10319.01872-.085.01546-.097.01758-.11914.02165-.0791.01448-.08529.01546-.13346.02442-.08887.01611-.07389.01351-.13216.02409-.0957.01758-.0778.01432-.11394.02083-.09407.01726-.09766.0179-.07291.01351-.138.02539-.08138.015-.09571.01758-.081.015-.13672.02523-.06152.0114-.14747.02734-.04687.00863-.12077.02229-.06868.01286-.15365.02849-.043.008-.13249.02458-.0498.00944-.16244.03011-.04134.00781-.14746.02751-.0459.00846-.14518.02718-.04459.0083c-.04851.00912-.10612.02-.15463.029l-.06152.01156-.12044.02262-.04883.00928-.14876.02783-.07325.01384-.10026.01888-.08789.0166-.12044.02279-.0599.01123-.152.0288-.05111.00961-.11914.02262-.06055.01139-.15267.029-.04687.009-.138.0262-.03256.00619-.15983.03043-.04915.00944c-.05208.00977-.10286.01953-.15495.02946l-.04752.00912-.12956.02474-.04655.00879-.15918.0306-.04134.00781-.14942.02864-.02083.00407-.15918.0306-.055.01058-.151.029-.03841.00733-.13965.027-.04362.00847-.16439.03174-.0293.00569c-.04394.0083-.0931.01791-.137.02637l-.04623.00895-.15983.03093-.03678.00716-.15072.0293-.04622.00895-.14095.02734-.042.00814-.16374.0319-.026.005-.16244.03173-.013.00261-.1709.03336-.03287.00635-.16927.0332-.00293.00066-.16667.03255-.04167.0083c-.11426.0223-.23014.04508-.3444.06754l-.02051.00407-.17806.03516-.00976.00179-.17643.035-.00879.00163-.18132.03581-.00944.002c-.18424.03646-.36556.07243-.54948.10889l-.02311.00472c-.24642.049-.488.09717-.7334.14632l-.0039.00081c-.4987.09978-.99252.19938-1.48731.29965l-.00163.00048c-.24739.05013-.48958.09945-.736.14974l-.00521.001q-6.23877,1.27392-12.03939,2.591a21.33334,21.33334,0,1,0,9.44955,41.6071C160.47884,388.964,207.16764,384,256,384a21.33334,21.33334,0,0,0,0-42.66667Z" style="fill:#009c13"/><rect x="384" y="298.66667" width="42.66667" height="128" rx="21.33331" ry="21.33331" style="fill:#004205"/><rect x="384" y="362.66667" width="42.66667" height="21.33333" rx="10.66666" ry="10.66666" style="fill:#0d230d"/><path d="M347.79252,362.66667H462.87415a27.79253,27.79253,0,0,0,27.79252-27.79252V331.512a27.79255,27.79255,0,0,0-8.14024-19.65228L448,277.33333h14.87415a27.79252,27.79252,0,0,0,27.79252-27.79252v0a27.79249,27.79249,0,0,0-12.376-23.12477L426.66667,192h14.87414a27.79251,27.79251,0,0,0,27.79252-27.79252v-3.36211a27.79253,27.79253,0,0,0-8.14024-19.65228L441.7516,121.7516a51.50319,51.50319,0,0,0-36.41825-15.08493h0a51.50316,51.50316,0,0,0-36.41824,15.08493l-19.4415,19.44149a27.79257,27.79257,0,0,0-8.14024,19.65228v3.36211A27.79252,27.79252,0,0,0,369.12585,192H384l-51.624,34.416A27.79251,27.79251,0,0,0,320,249.54077v0a27.79251,27.79251,0,0,0,27.79252,27.79252h14.87415l-34.52643,34.52643A27.79251,27.79251,0,0,0,320,331.512v3.36211A27.79252,27.79252,0,0,0,347.79252,362.66667Z" style="fill:#0d9f00"/><path d="M405.33333,276.502a28.05633,28.05633,0,0,0-19.89587,8.23828h0s-.5776.57748-1.58777,1.58692l-.01375.014c-.5055.5052-1.119,1.11849-1.8215,1.82031l-.01749.01758c-.34754.34733-.71859.7181-1.10755,1.10709l-.02343.02344q-.58.57959-1.21566,1.21484l-.105.10515-.06722.067-.02507.02507-.48091.48079-.02157.02149q-.24847.24854-.5037.50325l-.006.00619-.15674.15657-.0258.02572q-.347.34717-.70475.70443l-.00265.0026q-.27.27-.5461.5459l-.00822.00814c-.029.02929-.05652.05664-.08565.08561l-.01131.01139-.04545.04558-.14547.14518-.06433.06445-.03158.03158-.17509.1748-.00085.001c-.11955.11946-.239.23893-.35995.3597l-.04451.04459c-.23731.23731-.47852.4782-.72091.72038l-.07995.08008q-.16449.16455-.331.33073l-.037.03711-.16024.16016-.05038.05013-.04162.04166-.1602.16016c-.05334.05338-.10441.10449-.158.15788l-.01754.01757-.08313.083-.0354.03548-.03853.03842-.0765.07649-.03886.03874-.04541.04557-.04675.04655-.371.37077-.03654.03678-.05782.05762-.07174.07162-.01583.016-.06888.069-.06771.06738c-.04826.0485-.096.096-.14437.14453l-.04871.0485-.052.05209-.20048.20052q-.15576.15576-.31242.31217l-.06014.06022-.06612.06608-.01546.0153-.06083.06088-.08733.08724-.00492.00488-.30835.30827-.00793.00781-.08476.08463-.133.13314-.07027.07032c-.05615.056-.11344.11328-.16972.16959l-.027.027c-.042.04167-.08456.08431-.12655.1263l-.1958.19564-.05949.05957-.07275.07259-.05636.05664-.16683.16667-.00236.00228-.0706.07064-.04195.042-.82255.82194-.03809.03808-.52705.5267-.007.00716L348.254,321.90462a10.66664,10.66664,0,0,0,15.08484,15.085l37.18-37.16048a6.78142,6.78142,0,0,1,4.81449-1.99381,10.66667,10.66667,0,1,0,0-21.33334Z" style="fill:#30bf00"/><path d="M405.33142,212.65072a45.70483,45.70483,0,0,0-25.37642,7.682h0l-13.11959,8.74512a10.66655,10.66655,0,1,0,11.83231,17.751l13.11939-8.74447a24.34155,24.34155,0,0,1,13.54431-4.10026,10.66666,10.66666,0,1,0,0-21.33333Z" style="fill:#30bf00"/><path d="M405.33333,128A29.92071,29.92071,0,0,0,384,136.83333h0l-13.41313,13.40593a10.66665,10.66665,0,1,0,15.081,15.08886l13.43082-13.42382a8.62841,8.62841,0,0,1,6.23466-2.571,10.66666,10.66666,0,1,0,0-21.33333Z" style="fill:#30bf00"/><path d="M405.33333,106.66667h-.10217l-.05143.00032h-.03329l-.04215.00033h-.04065l-.0339.00032-.04663.00033h-.02734l-.05225.00065h-.01969l-.06079.00065h-.00749q-.328.00342-.65556.01074l-.00785.00033c-.09977.00228-.19914.00488-.29887.00749a10.51971,10.51971,0,0,0-10.11653,10.77734,10.81416,10.81416,0,0,0,10.785,10.54329c.04089,0,.08284,0,.12382-.00065L405.33333,128h0a29.97369,29.97369,0,0,1,21.33354,8.83659l19.44063,19.44075a6.41777,6.41777,0,0,1,1.8925,4.568v3.362a6.4666,6.4666,0,0,1-6.45911,6.45931H426.66667a21.33332,21.33332,0,0,0-11.83362,39.08366l51.6239,34.416A6.45921,6.45921,0,0,1,462.87423,256H448a21.3333,21.3333,0,0,0-15.0848,36.41829L467.44084,326.944a6.41773,6.41773,0,0,1,1.89249,4.568v3.362a6.46659,6.46659,0,0,1-6.4591,6.45931H358.38932a10.66667,10.66667,0,0,0,0,21.33334H462.87423A27.79243,27.79243,0,0,0,490.66667,334.874v-3.362a27.7934,27.7934,0,0,0-8.14018-19.65234l-.01436-.01432c-.03239-.03255-.119-.11914-.25538-.25554l-.11637-.11621-.01847-.01855-.10755-.10742-.02734-.02735-.03467-.03483c-.14335-.14323-.31254-.3125-.5048-.50488l-.05872-.05859-.07613-.07618-.06612-.06608-.06876-.06868-.10857-.10873-.02632-.02636h0l-.13485-.13477-.02856-.02864-.10633-.10612-.00769-.00782q-.12689-.12695-.262-.262l-.16976-.1696-.1-.10026-.10074-.10058-.0341-.03418-.03492-.03483-.1-.09994-.04126-.04134-.09359-.09375-.05188-.05176q-.23541-.23535-.48763-.48763l-.096-.096-.03881-.03873-.0022-.00228-.13269-.13249-.33679-.33691-.06779-.06771-.52918-.5293-.01033-.01042-.13392-.13378-.00093-.001-.04769-.04753c-.02836-.02864-.05863-.05892-.0872-.08724l-.36251-.36263-.04207-.042-.21712-.21712-.05262-.05274-.05293-.05273-.35169-.35189-.41675-.41667-.2576-.25748-.36166-.36166c-.05932-.05957-.118-.11816-.17781-.17806l-.02226-.02213q-.51568-.51562-1.05668-1.05664l-.05542-.05534q-.17346-.17384-.34921-.34928l-.12264-.12273-.0122-.012-.12089-.12109-.014-.014-1.294-1.29395-.05468-.05468-.08737-.08724-.04752-.04753-.02381-.02376-.11108-.11133-.24845-.24837c-.09713-.097-.1932-.193-.291-.291l-.1466-.14648-.6626-.66276-.0057-.00554-.12919-.12923-.02116-.02116q-.3247-.3247-.65316-.65332l-.14359-.14355c-.04183-.04167-.08427-.084-.12614-.126l-.62634-.6263-.048-.04818-.01623-.01627-.11866-.11849-.43131-.43132q-.18829-.18848-.37789-.37793l-.01794-.0179-.2518-.252-.14619-.14615-.12354-.12338-.15129-.15136-.11844-.11849-.00656-.00651-.12833-.12826-.11235-.1123-.0225-.02279-.05786-.05762-.077-.07715-.1643-.16438-.10543-.10515-.217-.21712-.05278-.05273-.14575-.14584-.124-.124-.00041-.00033-.13448-.13444-.108-.10807-.1617-.16178-.06226-.06218c-.11377-.1136-.22856-.22851-.34233-.34245h0l-.13488-.13476-.027-.027-.10787-.10775-.13485-.13476c-.04528-.04558-.0896-.08985-.13488-.13509l-.10771-.10775-.02718-.027-.13444-.13444-.1353-.13542-.26831-.26823-.13631-.13639-.0249-.02474-.11-.11-.05106-.05111-.08382-.08366-.077-.07715-.05782-.05794-.0225-.02246-.11239-.11231-.12829-.12825-.00656-.00651-.07356-.07357-.06132-.06152-.01872-.01856-.11617-.11621-.12354-.1237c-.048-.04785-.09818-.098-.1462-.14616l-.13309-.13313c-.04586-.04558-.09082-.09082-.13664-.1364l-.37789-.37793c-.09851-.09863-.1982-.19824-.29643-.29655l-.01847-.01823c-.12923-.12955-.25749-.25781-.38615-.38639l-.005-.00488c-.04322-.0433-.08667-.08692-.12985-.12988l-.14062-.14063q-.40461-.40479-.80343-.80338l-.53381-.53386-.0057-.00586-.06921-.069-.06564-.06575-.08374-.08366-.05114-.05111-.02328-.02344-.11157-.11133-.258-.25813c-.04854-.04851-.09818-.09831-.1466-.14649l-.21855-.21875-.05119-.0511-.09354-.09375-.04134-.041-.1744-.17448-.09534-.09538-.11865-.11881-.0162-.01595-.26631-.26628-.00342-.00358-.34509-.34505-.05953-.05957-.07841-.07845-.05644-.05632-.08065-.08073c-.06234-.06217-.12711-.12695-.18913-.18912l-.14974-.14974q-.47241-.47217-.92919-.929l-.24345-.24349c-.05371-.05371-.10783-.10807-.16118-.16113l-.0723-.07259c-.20378-.20378-.40385-.40365-.602-.60189l-.02267-.02279c-.0826-.08235-.16548-.16536-.24707-.24707l-.10563-.10547-.02926-.02929-.08626-.08627-.04858-.0485-.05441-.05436c-.16451-.16472-.32523-.3252-.4851-.485l-.08317-.08333-.05168-.05176-.00256-.0026c-.04423-.04395-.08846-.08822-.13233-.13216l-.082-.082-.05289-.05273-.105-.10514-.02986-.02995-.12565-.12565-.0092-.00912-.19442-.19433-.345-.34505-.19275-.19271-.077-.07715-.01726-.01725-.11759-.11752-.06771-.06771-.202-.20214-.45434-.45443-.08513-.085-.03885-.03874c-.48141-.48144-.92054-.92057-1.30986-1.30989l-.08321-.08334-.05164-.05176-.0686-.06836-.06628-.0664-.1342-.13412-.00065-.00065-.16122-.16113-.10856-.10872-.16459-.16472c-.19144-.1914-.36218-.362-.50972-.50944l-.01742-.01758-.11747-.11751-.23857-.23861c-.1969-.19694-.3009-.30078-.3009-.30078h14.87423A27.79249,27.79249,0,0,0,478.29057,226.416h0s-.80664-.53776-2.21822-1.47885h0c-1.41158-.94108-3.42814-2.28548-5.848-3.89876h0c-2.41988-1.61328-5.243-3.49544-8.2679-5.51172h0c-3.02482-2.0166-6.2513-4.16764-9.47782-6.31868h0c-3.22648-2.151-6.453-4.30209-9.47783-6.31869h0c-3.02482-2.0166-5.848-3.89843-8.26786-5.51172h0l-5.848-3.89876h0L426.66667,192h14.87422a27.79242,27.79242,0,0,0,27.79244-27.79264v-3.362a27.7934,27.7934,0,0,0-8.14017-19.65235h0l-.83537-.83528h0c-.53158-.5319-1.291-1.291-2.20235-2.20248h0c-.91134-.91145-1.97453-1.97461-3.11369-3.1136h0c-1.13912-1.13933-2.35425-2.35417-3.56934-3.56934h0c-1.21509-1.21517-2.43017-2.43-3.56933-3.56934h0c-1.13912-1.139-2.20236-2.20214-3.11365-3.1136h0c-.91134-.91146-1.67078-1.6709-2.20235-2.20248h0c-.53162-.53157-.83541-.83528-.83541-.83528h0a51.503,51.503,0,0,0-36.41834-15.085Z" style="fill:#0e8900"/><rect x="85.33333" y="298.66667" width="42.66667" height="128" rx="21.33331" ry="21.33331" style="fill:#004205"/><rect x="85.33333" y="362.66667" width="42.66667" height="21.33333" rx="10.66666" ry="10.66666" style="fill:#0d230d"/><path d="M49.12585,362.66667H164.20748A27.79252,27.79252,0,0,0,192,334.87415V331.512a27.79251,27.79251,0,0,0-8.14024-19.65228l-34.52643-34.52643h14.87415A27.79251,27.79251,0,0,0,192,249.54081v0A27.79251,27.79251,0,0,0,179.624,226.416L128,192h14.87415a27.79252,27.79252,0,0,0,27.79252-27.79252v-3.36211a27.79257,27.79257,0,0,0-8.14024-19.65228l-19.4415-19.44149a51.50316,51.50316,0,0,0-36.41824-15.08493h0A51.50319,51.50319,0,0,0,70.2484,121.7516L50.80691,141.19309a27.79253,27.79253,0,0,0-8.14024,19.65228v3.36211A27.79251,27.79251,0,0,0,70.45919,192H85.33333l-51.624,34.416a27.79249,27.79249,0,0,0-12.376,23.12477v0a27.79252,27.79252,0,0,0,27.79252,27.79252H64L29.47357,311.85976A27.79255,27.79255,0,0,0,21.33333,331.512v3.36211A27.79253,27.79253,0,0,0,49.12585,362.66667Z" style="fill:#0d9f00"/><path d="M106.66667,276.502a28.05635,28.05635,0,0,0-19.89588,8.23828h0s-.57759.57748-1.58777,1.58692l-.01375.014c-.50549.5052-1.119,1.11849-1.82149,1.82031l-.0175.01758c-.34753.34733-.71859.7181-1.10754,1.10709l-.02344.02344q-.58.57959-1.21566,1.21484l-.105.10515-.06722.067-.02506.02507-.48092.48079-.02157.02149q-.24847.24854-.5037.50325l-.006.00619-.15674.15657-.0258.02572q-.347.34717-.70475.70443l-.00264.0026q-.27.27-.54611.5459l-.00821.00814c-.02906.02929-.05652.05664-.08566.08561l-.01131.01139-.04545.04558-.14547.14518-.06433.06445-.03157.03158-.17509.1748-.00086.001c-.11955.11946-.239.23893-.35994.3597l-.04452.04459c-.2373.23731-.47851.4782-.7209.72038l-.08.08008q-.16449.16455-.331.33073l-.037.03711-.16024.16016-.05037.05013-.04163.04166-.1602.16016c-.05334.05338-.10441.10449-.158.15788l-.01753.01757-.08313.083-.0354.03548-.03854.03842-.07649.07649-.03886.03874-.04541.04557-.04676.04655-.371.37077-.03654.03678-.05782.05762-.07173.07162-.01583.016-.06889.069-.06771.06738c-.04826.0485-.096.096-.14437.14453l-.0487.0485-.052.05209-.20048.20052q-.15576.15576-.31242.31217l-.06014.06022-.06612.06608-.01546.0153-.06083.06088-.08732.08724-.00493.00488-.30835.30827-.00793.00781-.08476.08463-.133.13314-.07027.07032c-.05616.056-.11345.11328-.16972.16959l-.027.027c-.04195.04167-.08456.08431-.12655.1263l-.1958.19564-.05949.05957-.07275.07259-.05636.05664-.16683.16667-.00236.00228-.07059.07064-.042.042-.82255.82194-.03808.03808-.52706.5267-.007.00716L49.58736,321.90462a10.66664,10.66664,0,0,0,15.08484,15.085l37.18-37.16048a6.78144,6.78144,0,0,1,4.8145-1.99381,10.66667,10.66667,0,0,0,0-21.33334Z" style="fill:#30bf00"/><path d="M106.66475,212.65072a45.70483,45.70483,0,0,0-25.37642,7.682h0L68.16874,229.0778a10.66655,10.66655,0,1,0,11.83232,17.751l13.11938-8.74447a24.34158,24.34158,0,0,1,13.54431-4.10026,10.66667,10.66667,0,1,0,0-21.33333Z" style="fill:#30bf00"/><path d="M106.66667,128a29.92073,29.92073,0,0,0-21.33334,8.83333h0L71.92021,150.23926a10.66665,10.66665,0,1,0,15.081,15.08886L100.432,151.9043a8.6284,8.6284,0,0,1,6.23466-2.571,10.66667,10.66667,0,0,0,0-21.33333Z" style="fill:#30bf00"/><path d="M106.66667,106.66667h-.10218l-.05143.00032h-.03328l-.04216.00033H106.397l-.03389.00032-.04663.00033h-.02735l-.05224.00065h-.0197l-.06079.00065h-.00748q-.328.00342-.65556.01074l-.00786.00033c-.09977.00228-.19913.00488-.29887.00749a10.51973,10.51973,0,0,0-10.11653,10.77734,10.81416,10.81416,0,0,0,10.785,10.54329c.0409,0,.08285,0,.12382-.00065L106.66667,128h0a29.97367,29.97367,0,0,1,21.33353,8.83659l19.44064,19.44075a6.41776,6.41776,0,0,1,1.89249,4.568v3.362a6.46659,6.46659,0,0,1-6.4591,6.45931H128a21.33332,21.33332,0,0,0-11.83362,39.08366l51.6239,34.416A6.45921,6.45921,0,0,1,164.20756,256H149.33333a21.33329,21.33329,0,0,0-15.08479,36.41829L168.77417,326.944a6.41774,6.41774,0,0,1,1.8925,4.568v3.362a6.46659,6.46659,0,0,1-6.45911,6.45931H59.72266a10.66667,10.66667,0,1,0,0,21.33334h104.4849A27.79243,27.79243,0,0,0,192,334.874v-3.362a27.79336,27.79336,0,0,0-8.14018-19.65234l-.01436-.01432c-.03239-.03255-.119-.11914-.25537-.25554l-.11638-.11621-.01847-.01855-.10754-.10742-.02735-.02735-.03466-.03483c-.14336-.14323-.31255-.3125-.50481-.50488l-.05871-.05859-.07613-.07618-.06612-.06608-.06877-.06868-.10856-.10873-.02633-.02636h0l-.13485-.13477-.02856-.02864-.10632-.10612-.00769-.00782q-.1269-.12695-.262-.262l-.16976-.1696-.1-.10026-.10075-.10058-.0341-.03418-.03491-.03483-.1-.09994-.04126-.04134-.09358-.09375-.05188-.05176q-.23542-.23535-.48763-.48763l-.096-.096-.03882-.03873-.0022-.00228-.13269-.13249-.33679-.33691-.06779-.06771-.52918-.5293-.01033-.01042-.13391-.13378-.00094-.001-.04769-.04753c-.02836-.02864-.05863-.05892-.0872-.08724l-.3625-.36263-.04208-.042-.21712-.21712-.05261-.05274-.05294-.05273-.35168-.35189-.41675-.41667-.25761-.25748-.36166-.36166c-.05932-.05957-.118-.11816-.17781-.17806l-.02226-.02213q-.51568-.51562-1.05668-1.05664l-.05542-.05534q-.17346-.17384-.3492-.34928l-.12264-.12273-.01221-.012-.12089-.12109-.014-.014-1.294-1.29395-.05469-.05468-.08736-.08724-.04753-.04753-.0238-.02376-.11109-.11133-.24845-.24837c-.09713-.097-.1932-.193-.291-.291l-.1466-.14648-.6626-.66276-.0057-.00554-.12919-.12923-.02116-.02116q-.3247-.3247-.65315-.65332l-.1436-.14355c-.04183-.04167-.08427-.084-.12614-.126l-.62634-.6263-.048-.04818-.01623-.01627-.11865-.11849-.43132-.43132q-.1883-.18848-.37789-.37793l-.01794-.0179-.25179-.252-.1462-.14615-.12354-.12338-.15128-.15136-.11845-.11849-.00655-.00651-.12834-.12826-.11234-.1123-.02251-.02279-.05786-.05762-.077-.07715-.16431-.16438-.10543-.10515-.217-.21712-.05277-.05273-.14575-.14584-.124-.124-.0004-.00033-.13449-.13444-.108-.10807-.1617-.16178-.06226-.06218c-.11377-.1136-.22855-.22851-.34232-.34245h0l-.13489-.13476-.027-.027-.10787-.10775-.13484-.13476c-.04529-.04558-.0896-.08985-.13489-.13509l-.10771-.10775-.02718-.027-.13444-.13444-.13529-.13542-.26831-.26823-.13632-.13639-.0249-.02474-.10994-.11-.05107-.05111-.08382-.08366-.077-.07715-.05782-.05794-.0225-.02246-.11239-.11231-.12829-.12825-.00655-.00651L164.5,292.5l-.06132-.06152-.01872-.01856-.11617-.11621-.12353-.1237c-.04806-.04785-.09819-.098-.1462-.14616l-.1331-.13313c-.04586-.04558-.09082-.09082-.13664-.1364l-.37789-.37793c-.09851-.09863-.1982-.19824-.29642-.29655l-.01848-.01823c-.12923-.12955-.25748-.25781-.38615-.38639l-.005-.00488c-.04321-.0433-.08667-.08692-.12984-.12988l-.14063-.14063q-.4046-.40479-.80342-.80338l-.53382-.53386-.00569-.00586-.06922-.069-.06563-.06575-.08374-.08366-.05115-.05111-.02327-.02344-.11158-.11133-.258-.25813c-.04855-.04851-.09819-.09831-.14661-.14649l-.21855-.21875-.05118-.0511-.09355-.09375-.04134-.041-.1744-.17448-.09534-.09538-.11865-.11881-.01619-.01595-.26632-.26628-.00342-.00358-.34509-.34505-.05953-.05957-.07841-.07845-.05644-.05632-.08064-.08073c-.06234-.06217-.12712-.12695-.18913-.18912l-.14974-.14974q-.47241-.47217-.9292-.929l-.24345-.24349c-.05371-.05371-.10783-.10807-.16117-.16113l-.07231-.07259c-.20378-.20378-.40385-.40365-.602-.60189l-.02266-.02279c-.08261-.08235-.16549-.16536-.24707-.24707l-.10564-.10547-.02925-.02929-.08627-.08627-.04858-.0485-.0544-.05436c-.16451-.16472-.32524-.3252-.48511-.485l-.08317-.08333-.05168-.05176-.00256-.0026c-.04423-.04395-.08846-.08822-.13232-.13216l-.08195-.082-.0529-.05273-.105-.10514-.02987-.02995-.12565-.12565-.0092-.00912-.19441-.19433-.34506-.34505-.19274-.19271-.077-.07715-.01725-.01725-.1176-.11752-.06771-.06771-.202-.20214-.45435-.45443-.08512-.085-.03886-.03874c-.48141-.48144-.92053-.92057-1.30986-1.30989l-.08321-.08334-.05163-.05176-.06861-.06836-.06628-.0664-.1342-.13412-.00065-.00065-.16121-.16113-.10856-.10872-.16459-.16472c-.19145-.1914-.36219-.362-.50973-.50944l-.01741-.01758-.11748-.11751-.23856-.23861c-.1969-.19694-.30091-.30078-.30091-.30078h14.87423A27.79249,27.79249,0,0,0,179.6239,226.416h0s-.80664-.53776-2.21822-1.47885h0l-5.848-3.89876h0c-2.41988-1.61328-5.243-3.49544-8.26791-5.51172h0c-3.02482-2.0166-6.2513-4.16764-9.47782-6.31868h0c-3.22648-2.151-6.453-4.30209-9.47782-6.31869h0c-3.02482-2.0166-5.848-3.89843-8.26787-5.51172h0l-5.848-3.89876h0L128,192h14.87423a27.79243,27.79243,0,0,0,27.79244-27.79264v-3.362a27.79341,27.79341,0,0,0-8.14018-19.65235h0l-.83537-.83528h0c-.53157-.5319-1.291-1.291-2.20235-2.20248h0c-.91134-.91145-1.97453-1.97461-3.11369-3.1136h0c-1.13912-1.13933-2.35425-2.35417-3.56933-3.56934h0c-1.21509-1.21517-2.43018-2.43-3.56934-3.56934h0c-1.13912-1.139-2.20235-2.20214-3.11365-3.1136h0c-.91133-.91146-1.67077-1.6709-2.20235-2.20248h0c-.53162-.53157-.83541-.83528-.83541-.83528h0a51.503,51.503,0,0,0-36.41833-15.085Z" style="fill:#0e8900"/><rect x="234.66667" y="362.66667" width="42.66667" height="128" rx="21.33331" ry="21.33331" style="fill:#004205"/><rect x="234.66667" y="426.66667" width="42.66667" height="21.33333" rx="10.66666" ry="10.66666" style="fill:#0d230d"/><path d="M198.45919,426.66667H313.54081a27.79252,27.79252,0,0,0,27.79252-27.79252V395.512a27.79251,27.79251,0,0,0-8.14024-19.65228l-34.52642-34.52643h14.87414a27.79251,27.79251,0,0,0,27.79252-27.79252v0a27.79251,27.79251,0,0,0-12.376-23.12477L277.33333,256h14.87415A27.79251,27.79251,0,0,0,320,228.20748v-3.36211a27.79253,27.79253,0,0,0-8.14024-19.65228l-19.4415-19.44149A51.50316,51.50316,0,0,0,256,170.66667h0a51.50316,51.50316,0,0,0-36.41824,15.08493l-19.4415,19.44149A27.79253,27.79253,0,0,0,192,224.84537v3.36211A27.79251,27.79251,0,0,0,219.79252,256h14.87415l-51.624,34.416a27.79251,27.79251,0,0,0-12.376,23.12477v0a27.79251,27.79251,0,0,0,27.79252,27.79252h14.87414l-34.52642,34.52643a27.79251,27.79251,0,0,0-8.14024,19.65228v3.36211A27.79252,27.79252,0,0,0,198.45919,426.66667Z" style="fill:#30bf00"/><path d="M256,340.502a28.05631,28.05631,0,0,0-19.89587,8.23828h0s-.5776.57748-1.58777,1.58692l-.01376.014c-.50549.5052-1.119,1.11849-1.82149,1.82031l-.0175.01758c-.34753.34733-.71858.7181-1.10754,1.10709l-.02344.02344q-.57995.57959-1.21565,1.21484l-.105.10515-.06722.067-.02506.02507-.48092.48079-.02156.02149q-.24847.24854-.50371.50325l-.006.00619-.15674.15657-.02579.02572q-.347.34717-.70476.70443l-.00264.0026q-.27.27-.5461.5459l-.00822.00814c-.02905.02929-.05652.05664-.08565.08561l-.01132.01139-.04545.04558-.14546.14518-.06433.06445-.03158.03158-.17509.1748-.00085.001c-.11955.11946-.239.23893-.35995.3597l-.04451.04459c-.23731.23731-.47852.4782-.72091.72038l-.08.08008q-.16449.16455-.331.33073l-.037.03711-.16024.16016-.05037.05013-.04163.04166-.16019.16016c-.05335.05338-.10441.10449-.158.15788l-.01754.01757-.08313.083-.0354.03548-.03853.03842-.0765.07649-.03886.03874-.04541.04557-.04675.04655-.371.37077-.03654.03678-.05782.05762-.07174.07162-.01583.016-.06889.069-.06771.06738c-.04825.0485-.09594.096-.14436.14453l-.04871.0485-.052.05209-.20048.20052q-.15576.15576-.31242.31217l-.06014.06022-.06612.06608-.01547.0153-.06083.06088-.08732.08724-.00492.00488-.30835.30827-.00794.00781-.08475.08463-.133.13314-.07027.07032c-.05615.056-.11345.11328-.16972.16959l-.027.027c-.042.04167-.08455.08431-.12654.1263l-.19581.19564-.05948.05957-.07276.07259-.05635.05664-.16683.16667-.00236.00228-.0706.07064-.04195.042-.82255.82194-.03809.03808-.52706.5267-.007.00716-20.92623,20.91536a10.66664,10.66664,0,0,0,15.08484,15.085l37.18-37.16048A6.78142,6.78142,0,0,1,256,361.83529a10.66667,10.66667,0,1,0,0-21.33334Z" style="fill:#8ae963"/><path d="M255.99809,276.65072a45.70484,45.70484,0,0,0-25.37643,7.682h0l-13.11958,8.74512a10.66655,10.66655,0,1,0,11.83231,17.751l13.11939-8.74447a24.34155,24.34155,0,0,1,13.54431-4.10026,10.66667,10.66667,0,0,0,0-21.33333Z" style="fill:#8ae963"/><path d="M256,192a29.92069,29.92069,0,0,0-21.33333,8.83333h0l-13.41313,13.40593a10.66665,10.66665,0,1,0,15.081,15.08886l13.43083-13.42382A8.6284,8.6284,0,0,1,256,213.33333,10.66667,10.66667,0,1,0,256,192Z" style="fill:#8ae963"/><path d="M256,170.66667h-.10217l-.05144.00032h-.03328l-.04215.00033h-.04065l-.0339.00032-.04663.00033h-.02734l-.05225.00065h-.01969l-.06079.00065h-.00749q-.328.00342-.65556.01074l-.00785.00033c-.09978.00228-.19914.00488-.29887.00749a10.51973,10.51973,0,0,0-10.11654,10.77734,10.81417,10.81417,0,0,0,10.785,10.54329c.04089,0,.08284,0,.12382-.00065L256,192h0a29.97369,29.97369,0,0,1,21.33354,8.83659l19.44063,19.44075a6.41777,6.41777,0,0,1,1.8925,4.568v3.362a6.4666,6.4666,0,0,1-6.45911,6.45931H277.33333a21.33332,21.33332,0,0,0-11.83361,39.08366l51.6239,34.416A6.45921,6.45921,0,0,1,313.54089,320H298.66667a21.33329,21.33329,0,0,0-15.0848,36.41829L318.1075,390.944A6.41774,6.41774,0,0,1,320,395.512v3.362a6.46659,6.46659,0,0,1-6.45911,6.45931H209.056a10.66667,10.66667,0,0,0,0,21.33334h104.4849A27.79243,27.79243,0,0,0,341.33333,398.874v-3.362a27.79339,27.79339,0,0,0-8.14017-19.65234l-.01437-.01432c-.03239-.03255-.119-.11914-.25537-.25554l-.11637-.11621-.01848-.01855-.10754-.10742-.02734-.02735-.03467-.03483c-.14335-.14323-.31254-.3125-.5048-.50488l-.05872-.05859-.07613-.07618-.06612-.06608-.06877-.06868-.10856-.10873-.02633-.02636h0l-.13484-.13477-.02857-.02864-.10632-.10612-.00769-.00782q-.1269-.12695-.262-.262l-.16976-.1696-.1-.10026-.10075-.10058-.0341-.03418-.03491-.03483-.1-.09994-.04126-.04134-.09359-.09375-.05188-.05176q-.23541-.23535-.48763-.48763l-.096-.096-.03882-.03873-.0022-.00228-.13269-.13249-.33679-.33691-.06779-.06771-.52917-.5293-.01034-.01042-.13391-.13378-.00093-.001-.04769-.04753c-.02836-.02864-.05864-.05892-.0872-.08724l-.36251-.36263-.04207-.042-.21713-.21712-.05261-.05274-.05294-.05273-.35168-.35189-.41675-.41667-.25761-.25748-.36165-.36166c-.05933-.05957-.118-.11816-.17782-.17806l-.02226-.02213q-.51569-.51562-1.05668-1.05664l-.05542-.05534q-.17346-.17384-.3492-.34928l-.12264-.12273-.01221-.012-.12089-.12109-.014-.014-1.294-1.29395-.05469-.05468-.08736-.08724-.04752-.04753-.02381-.02376-.11108-.11133-.24846-.24837c-.09712-.097-.19319-.193-.291-.291l-.14661-.14648-.6626-.66276-.00569-.00554-.12919-.12923-.02116-.02116q-.32471-.3247-.65316-.65332l-.1436-.14355c-.04182-.04167-.08426-.084-.12613-.126l-.62635-.6263-.048-.04818-.01624-.01627-.11865-.11849-.43131-.43132c-.12553-.12565-.25192-.252-.37789-.37793l-.018-.0179-.25179-.252-.1462-.14615-.12353-.12338-.15129-.15136-.11845-.11849-.00655-.00651-.12834-.12826-.11234-.1123-.0225-.02279-.05786-.05762-.077-.07715-.16431-.16438-.10542-.10515-.217-.21712-.05278-.05273-.14575-.14584-.124-.124-.00041-.00033-.13448-.13444-.108-.10807-.16171-.16178-.06225-.06218c-.11377-.1136-.22856-.22851-.34233-.34245h0l-.13489-.13476-.027-.027-.10787-.10775-.13485-.13476c-.04529-.04558-.0896-.08985-.13489-.13509l-.1077-.10775-.02719-.027-.13444-.13444-.13529-.13542-.26831-.26823-.13631-.13639-.0249-.02474-.11-.11-.05107-.05111-.08382-.08366-.077-.07715-.05782-.05794-.02251-.02246-.11238-.11231-.1283-.12825-.00655-.00651-.07357-.07357-.06132-.06152-.01871-.01856-.11617-.11621-.12354-.1237c-.04805-.04785-.09818-.098-.1462-.14616l-.1331-.13313c-.04585-.04558-.09082-.09082-.13663-.1364l-.37789-.37793c-.09851-.09863-.1982-.19824-.29643-.29655l-.01847-.01823c-.12924-.12955-.25749-.25781-.38615-.38639l-.005-.00488c-.04321-.0433-.08667-.08692-.12984-.12988l-.14063-.14063q-.40459-.40479-.80342-.80338l-.53381-.53386-.0057-.00586-.06922-.069-.06563-.06575-.08374-.08366-.05115-.05111-.02327-.02344-.11157-.11133-.258-.25813c-.04854-.04851-.09818-.09831-.14661-.14649l-.21854-.21875-.05119-.0511-.09355-.09375-.04134-.041-.1744-.17448-.09533-.09538-.11865-.11881-.0162-.01595-.26632-.26628-.00341-.00358-.3451-.34505-.05953-.05957-.07841-.07845-.05643-.05632-.08065-.08073c-.06234-.06217-.12712-.12695-.18913-.18912l-.14974-.14974q-.47241-.47217-.9292-.929l-.24345-.24349c-.05371-.05371-.10783-.10807-.16117-.16113l-.07231-.07259c-.20377-.20378-.40385-.40365-.602-.60189l-.02266-.02279c-.0826-.08235-.16549-.16536-.24707-.24707l-.10563-.10547-.02926-.02929-.08626-.08627-.04859-.0485-.0544-.05436c-.16451-.16472-.32523-.3252-.48511-.485l-.08317-.08333-.05167-.05176-.00257-.0026c-.04423-.04395-.08846-.08822-.13232-.13216l-.08195-.082-.0529-.05273-.105-.10514-.02987-.02995-.12565-.12565-.00919-.00912-.19442-.19433-.34505-.34505-.19275-.19271-.077-.07715-.01725-.01725-.11759-.11752-.06771-.06771-.202-.20214-.45434-.45443-.08513-.085-.03886-.03874c-.4814-.48144-.92053-.92057-1.30985-1.30989l-.08321-.08334-.05164-.05176-.0686-.06836-.06629-.0664-.13419-.13412-.00065-.00065-.16122-.16113-.10856-.10872-.16459-.16472c-.19145-.1914-.36218-.362-.50973-.50944l-.01741-.01758-.11747-.11751-.23857-.23861c-.1969-.19694-.3009-.30078-.3009-.30078h14.87422A27.79249,27.79249,0,0,0,328.95723,290.416h0s-.80664-.53776-2.21822-1.47885h0l-5.848-3.89876h0c-2.41988-1.61328-5.243-3.49544-8.2679-5.51172h0c-3.02482-2.0166-6.2513-4.16764-9.47783-6.31868h0c-3.22648-2.151-6.453-4.30209-9.47782-6.31869h0c-3.02482-2.0166-5.848-3.89843-8.26786-5.51172h0l-5.848-3.89876h0L277.33333,256h14.87423A27.79242,27.79242,0,0,0,320,228.20736v-3.362a27.79337,27.79337,0,0,0-8.14018-19.65235h0l-.83537-.83528h0c-.53157-.5319-1.291-1.291-2.20235-2.20248h0c-.91133-.91145-1.97453-1.97461-3.11369-3.1136h0c-1.13911-1.13933-2.35424-2.35417-3.56933-3.56934h0c-1.21509-1.21517-2.43018-2.43-3.56934-3.56934h0c-1.13912-1.139-2.20235-2.20214-3.11364-3.1136h0c-.91134-.91146-1.67078-1.6709-2.20236-2.20248h0c-.53161-.53157-.83541-.83528-.83541-.83528h0A51.503,51.503,0,0,0,256,170.66667Z" style="fill:#0d9f00"/></g></svg>