<svg width="25" height="25" viewBox="0 0 25 25" fill="none" xmlns="http://www.w3.org/2000/svg">
<path d="M21.6666 13.3333C21.6666 18.85 18.0166 23.3333 12.5 23.3333C6.98331 23.3333 3.33331 18.85 3.33331 13.3333C5.17462 13.3488 6.9656 13.9361 8.45851 15.014C9.95143 16.0919 11.0725 17.6071 11.6666 19.35V11.6666H7.49998C6.83694 11.6666 6.20105 11.4032 5.73221 10.9344C5.26337 10.4655 4.99998 9.82966 4.99998 9.16662V4.16662C4.99998 3.99172 5.05501 3.82125 5.15728 3.67936C5.25955 3.53747 5.40386 3.43136 5.56979 3.37605C5.73572 3.32074 5.91484 3.31904 6.08179 3.37119C6.24873 3.42334 6.39504 3.5267 6.49998 3.66662L9.04998 6.99995L11.8 1.99995C11.8755 1.883 11.9792 1.78683 12.1015 1.72025C12.2237 1.65366 12.3607 1.61877 12.5 1.61877C12.6392 1.61877 12.7762 1.65366 12.8985 1.72025C13.0208 1.78683 13.1244 1.883 13.2 1.99995L15.95 6.99995L18.5 3.66662C18.6049 3.5267 18.7512 3.42334 18.9182 3.37119C19.0851 3.31904 19.2642 3.32074 19.4302 3.37605C19.5961 3.43136 19.7404 3.53747 19.8427 3.67936C19.945 3.82125 20 3.99172 20 4.16662V9.16662C20 9.82966 19.7366 10.4655 19.2677 10.9344C18.7989 11.4032 18.163 11.6666 17.5 11.6666H13.3333V19.35C13.9275 17.6071 15.0485 16.0919 16.5414 15.014C18.0344 13.9361 19.8253 13.3488 21.6666 13.3333Z" fill="black"/>
</svg>
