<?xml version="1.0" encoding="UTF-8"?>
<!DOCTYPE svg PUBLIC "-//W3C//DTD SVG 1.1//EN" "http://www.w3.org/Graphics/SVG/1.1/DTD/svg11.dtd">
<!-- Creator: CorelDRAW -->
<svg xmlns="http://www.w3.org/2000/svg" xml:space="preserve" width="6.82666in" height="6.82666in" style="shape-rendering:geometricPrecision; text-rendering:geometricPrecision; image-rendering:optimizeQuality; fill-rule:evenodd; clip-rule:evenodd"
viewBox="0 0 6.82666 6.82666"
 xmlns:xlink="http://www.w3.org/1999/xlink">
 <defs>
  <style type="text/css">
   <![CDATA[
    .fil0 {fill:#009688}
    .fil1 {fill:#FFFFFE;fill-rule:nonzero}
   ]]>
  </style>
 </defs>
 <g id="Layer_x0020_1">
  <metadata id="CorelCorpID_0Corel-Layer"/>
  <rect class="fil0" width="6.82666" height="6.82666" rx="0.853335" ry="0.853335"/>
  <path class="fil1" d="M1.848 1.67987c-0.0195591,-0.0554567 -0.080378,-0.0845591 -0.135835,-0.065 -0.0554567,0.0195591 -0.0845591,0.080378 -0.065,0.135835l1.13242 3.19137c0.0195591,0.0554567 0.080378,0.0845591 0.135835,0.065 0.0554567,-0.0195591 0.0845591,-0.080378 0.065,-0.135835l-1.13242 -3.19137z"/>
  <path class="fil1" d="M4.47766 4.74174c0.375409,0.0424291 0.695965,0.111008 0.925461,0.19672 0.270327,0.100961 0.427886,0.23589 0.427886,0.39487 0,0.202685 -0.270972,0.371457 -0.709071,0.480461 -0.396177,0.0985709 -0.941185,0.159543 -1.5411,0.159543 -0.599917,0 -1.14493,-0.0609724 -1.5411,-0.159543 -0.438098,-0.109004 -0.709071,-0.277776 -0.709071,-0.480461 0,-0.313685 0.21152,-0.564984 0.510787,-0.744969 0.34561,-0.20785 0.814173,-0.321705 1.19213,-0.321705 0.362382,0 0.694874,0.052626 0.949358,0.139339 0.240276,0.0818701 0.416717,0.198303 0.494724,0.335744z"/>
  <path class="fil1" d="M0.941732 3.58348c-0.632311,-1.59915 2.05378,-2.4248 2.69262,-0.809114l0.0307323 0.0777283 -0.101382 0.0304606 -2.48988 0.748224 -0.10135 0.0304528 -0.0307441 -0.077752z"/>
  <g id="_304713000">
   <path id="_304713480" class="fil1" d="M4.88976 1.32122c0.219575,0 0.418374,0.0890079 0.56228,0.232913 0.143906,0.143906 0.232913,0.342705 0.232913,0.56228 0,0.219575 -0.0890079,0.418378 -0.232913,0.562283 -0.143906,0.143906 -0.342705,0.232913 -0.56228,0.232913 -0.219575,0 -0.418378,-0.0890079 -0.562283,-0.232913 -0.143906,-0.143906 -0.232913,-0.342709 -0.232913,-0.562283 0,-0.219575 0.0890079,-0.418374 0.232913,-0.56228 0.143906,-0.143906 0.342709,-0.232913 0.562283,-0.232913z"/>
   <polygon id="_304713192" class="fil1" points="4.97331,0.959996 4.97331,1.2647 4.80621,1.2647 4.80621,0.959996 "/>
   <polygon id="_304713384" class="fil1" points="4.97331,2.96814 4.97331,3.27285 4.80621,3.27285 4.80621,2.96814 "/>
   <polygon id="_304712856" class="fil1" points="5.76655,1.35778 5.55109,1.57324 5.43294,1.45509 5.64841,1.23963 "/>
   <polygon id="_304713216" class="fil1" points="4.34657,2.77775 4.13111,2.99321 4.01297,2.87507 4.22843,2.65961 "/>
   <polygon id="_304713072" class="fil1" points="6.04619,2.19997 5.74148,2.19997 5.74148,2.03287 6.04619,2.03287 "/>
   <polygon id="_304712784" class="fil1" points="4.03804,2.19997 3.73333,2.19997 3.73333,2.03287 4.03804,2.03287 "/>
   <polygon id="_304712760" class="fil1" points="5.64841,2.99321 5.43294,2.77775 5.55109,2.65961 5.76655,2.87507 "/>
   <polygon id="_304712952" class="fil1" points="4.22843,1.57324 4.01297,1.35778 4.13111,1.23963 4.34657,1.45509 "/>
  </g>
 </g>
</svg>
