<svg width="23" height="23" viewBox="0 0 23 23" fill="none" xmlns="http://www.w3.org/2000/svg">
<path d="M1.53333 19.9333V3.06665H8.43332C9.47864 3.06638 10.5013 3.3714 11.3757 3.94424C12.25 4.51708 12.9381 5.33281 13.3553 6.29125C13.0552 6.60294 12.7956 6.95119 12.5825 7.32778C12.2299 7.95645 12.2268 8.61118 12.3157 9.09725L12.7757 11.5889C12.2782 12.2744 11.6252 12.8322 10.8704 13.2166C10.1155 13.6009 9.28037 13.8008 8.43332 13.8H4.59999V19.9333H1.53333ZM8.43332 10.7333C8.73537 10.7333 9.03445 10.6738 9.3135 10.5582C9.59255 10.4427 9.8461 10.2732 10.0597 10.0597C10.2732 9.84609 10.4427 9.59254 10.5582 9.31349C10.6738 9.03444 10.7333 8.73536 10.7333 8.43332C10.7333 8.13128 10.6738 7.83219 10.5582 7.55314C10.4427 7.2741 10.2732 7.02055 10.0597 6.80697C9.8461 6.5934 9.59255 6.42398 9.3135 6.30839C9.03445 6.19281 8.73537 6.13332 8.43332 6.13332H4.59999V10.7333H8.43332ZM13.8245 8.81972C13.7683 8.56884 13.802 8.3062 13.9196 8.07758C14.283 7.43358 15.2996 6.13332 17.6333 6.13332C19.9655 6.13332 20.9837 7.43205 21.3455 8.07758C21.4642 8.30583 21.4989 8.56848 21.4437 8.81972L19.9625 16.8666H18.4V19.9333H16.8667V16.8666H15.3042L13.8245 8.81972ZM19.55 10.7333L19.9333 8.67098C19.6727 8.29378 19.044 7.66665 17.6333 7.66665C16.2227 7.66665 15.594 8.29532 15.3333 8.67098L15.7167 10.7333H19.55Z" fill="black"/>
</svg>
