<svg width="30" height="30" viewBox="0 0 30 30" fill="none" xmlns="http://www.w3.org/2000/svg">
<g clip-path="url(#clip0_126_408)">
<g clip-path="url(#clip1_126_408)">
<path d="M0.640173 14.8205C0.63947 17.3411 1.30322 19.8022 2.56533 21.9715L0.51947 29.3834L8.16385 27.3946C10.2782 28.5367 12.6471 29.1351 15.0545 29.1353H15.0608C23.0079 29.1353 29.477 22.7186 29.4804 14.8318C29.4819 11.01 27.9833 7.4163 25.2606 4.71258C22.5383 2.0091 18.9178 0.519444 15.0602 0.5177C7.11221 0.5177 0.643572 6.93398 0.640291 14.8205" fill="url(#paint0_linear_126_408)"/>
<path d="M0.125391 14.8158C0.12457 17.4271 0.812109 19.9763 2.11922 22.2233L0 29.9008L7.91848 27.8407C10.1003 29.021 12.5568 29.6434 15.0564 29.6443H15.0628C23.295 29.6443 29.9965 22.9969 30 14.8277C30.0014 10.8686 28.4489 7.1457 25.6289 4.34512C22.8086 1.54488 19.0586 0.00162791 15.0628 0C6.82922 0 0.128672 6.64651 0.125391 14.8158ZM4.84113 21.8363L4.54547 21.3706C3.30258 19.4097 2.64656 17.1436 2.6475 14.8167C2.65008 8.02663 8.2193 2.50233 15.0675 2.50233C18.3839 2.50372 21.5006 3.78651 23.8448 6.11395C26.1889 8.44163 27.4788 11.5358 27.478 14.8267C27.475 21.6169 21.9056 27.1419 15.0628 27.1419H15.0579C12.8298 27.1407 10.6446 26.547 8.73891 25.425L8.28539 25.1581L3.58641 26.3806L4.84113 21.8363Z" fill="url(#paint1_linear_126_408)"/>
<path d="M11.3295 7.42182C11.0499 6.80519 10.7556 6.79275 10.4897 6.78193C10.272 6.77263 10.0231 6.77333 9.7744 6.77333C9.5255 6.77333 9.12108 6.86623 8.77925 7.23658C8.43706 7.60728 7.47284 8.50309 7.47284 10.3251C7.47284 12.1472 8.8103 13.908 8.99675 14.1553C9.18343 14.4022 11.5787 18.2608 15.3723 19.7452C18.5251 20.9788 19.1667 20.7334 19.851 20.6716C20.5354 20.61 22.0593 19.776 22.3702 18.9112C22.6813 18.0466 22.6813 17.3054 22.588 17.1505C22.4948 16.9962 22.2458 16.9036 21.8726 16.7184C21.4992 16.5332 19.6643 15.6373 19.3223 15.5137C18.9801 15.3902 18.7313 15.3286 18.4824 15.6994C18.2335 16.0696 17.5187 16.9036 17.3009 17.1505C17.0833 17.3981 16.8654 17.4289 16.4923 17.2437C16.1188 17.0579 14.9168 16.6673 13.4908 15.4058C12.3812 14.4241 11.6322 13.2119 11.4144 12.8411C11.1967 12.4709 11.3911 12.2702 11.5783 12.0857C11.746 11.9197 11.9516 11.6532 12.1384 11.437C12.3245 11.2208 12.3866 11.0665 12.5111 10.8195C12.6357 10.5723 12.5733 10.356 12.4801 10.1708C12.3866 9.98554 11.6614 8.15403 11.3295 7.42182Z" fill="white"/>
</g>
</g>
<defs>
<linearGradient id="paint0_linear_126_408" x1="1448.56" y1="2887.09" x2="1448.56" y2="0.5177" gradientUnits="userSpaceOnUse">
<stop stop-color="#1FAF38"/>
<stop offset="1" stop-color="#60D669"/>
</linearGradient>
<linearGradient id="paint1_linear_126_408" x1="1500" y1="2990.08" x2="1500" y2="0" gradientUnits="userSpaceOnUse">
<stop stop-color="#F9F9F9"/>
<stop offset="1" stop-color="white"/>
</linearGradient>
<clipPath id="clip0_126_408">
<rect width="30" height="30" fill="white"/>
</clipPath>
<clipPath id="clip1_126_408">
<rect width="30" height="30" fill="white"/>
</clipPath>
</defs>
</svg>
