<svg width="21" height="19" viewBox="0 0 21 19" fill="none" xmlns="http://www.w3.org/2000/svg">
<path d="M19.8026 8.82246L12.136 1.15579C12.0019 1.02181 11.8312 0.93057 11.6453 0.893609C11.4594 0.856649 11.2668 0.875627 11.0917 0.948144C10.9166 1.02066 10.767 1.14346 10.6617 1.30102C10.5563 1.45858 10.5001 1.64382 10.5001 1.83334V5.23063C7.88219 5.47289 5.44892 6.68333 3.67645 8.62507C1.90398 10.5668 0.919883 13.1001 0.916748 15.7292V17.1667C0.916899 17.3656 0.978953 17.5596 1.0943 17.7216C1.20965 17.8837 1.37258 18.0059 1.56049 18.0712C1.74839 18.1365 1.95196 18.1417 2.14296 18.0861C2.33396 18.0305 2.50293 17.9168 2.62641 17.7608C3.56529 16.6443 4.71726 15.7261 6.01503 15.0599C7.31279 14.3937 8.73032 13.9927 10.1848 13.8805C10.2327 13.8748 10.3525 13.8652 10.5001 13.8556V17.1667C10.5001 17.3562 10.5563 17.5414 10.6617 17.699C10.767 17.8565 10.9166 17.9793 11.0917 18.0519C11.2668 18.1244 11.4594 18.1434 11.6453 18.1064C11.8312 18.0694 12.0019 17.9782 12.136 17.8442L19.8026 10.1775C19.9823 9.99783 20.0832 9.75412 20.0832 9.5C20.0832 9.24589 19.9823 9.00217 19.8026 8.82246ZM12.4167 14.8533V12.8542C12.4167 12.6 12.3158 12.3562 12.1361 12.1765C11.9563 11.9968 11.7126 11.8958 11.4584 11.8958C11.214 11.8958 10.2164 11.9438 9.9615 11.9773C7.37866 12.2153 4.92011 13.1966 2.88325 14.8025C3.11444 12.6888 4.11714 10.7347 5.69936 9.31424C7.28158 7.89381 9.33214 7.1069 11.4584 7.10417C11.7126 7.10417 11.9563 7.0032 12.1361 6.82348C12.3158 6.64376 12.4167 6.4 12.4167 6.14583V4.14675L17.77 9.5L12.4167 14.8533Z" fill="black"/>
</svg>
