<svg width="24" height="24" viewBox="0 0 24 24" fill="none" xmlns="http://www.w3.org/2000/svg">
<path d="M21.96 17.9769C21.9586 18.531 21.8422 19.0787 21.618 19.5854C21.3938 20.0921 21.0669 20.5467 20.6578 20.9204C20.2487 21.2941 19.7664 21.5787 19.2416 21.7562C18.7167 21.9337 18.1607 22.0003 17.6087 21.9516C17.0568 21.9029 16.521 21.7401 16.0353 21.4735C15.5496 21.2069 15.1246 20.8423 14.7872 20.4028C14.4498 19.9633 14.2074 19.4585 14.0753 18.9204C13.9432 18.3823 13.9244 17.8227 14.02 17.2769L9.12001 15.0569C8.74553 15.5214 8.27189 15.8964 7.73378 16.1542C7.19566 16.412 6.6067 16.5462 6.01001 16.5469C4.94914 16.5469 3.93173 16.1255 3.18158 15.3753C2.43144 14.6252 2.01001 13.6078 2.01001 12.5469C2.01001 11.486 2.43144 10.4686 3.18158 9.71847C3.93173 8.96833 4.94914 8.5469 6.01001 8.5469C6.55848 8.54867 7.10072 8.66321 7.60305 8.8834C8.10538 9.1036 8.55705 9.42475 8.93001 9.8269L14.09 7.0269C13.9997 6.70137 13.956 6.3647 13.96 6.0269C13.959 5.09626 14.2825 4.19439 14.8748 3.47659C15.4671 2.75879 16.2912 2.26998 17.2051 2.09435C18.119 1.91871 19.0656 2.06724 19.8818 2.51436C20.698 2.96148 21.3327 3.6792 21.6767 4.54392C22.0207 5.40865 22.0524 6.36626 21.7664 7.25186C21.4804 8.13745 20.8945 8.89559 20.1097 9.39573C19.3249 9.89587 18.3902 10.1067 17.4667 9.99193C16.5431 9.87715 15.6885 9.44394 15.05 8.7669L9.89001 11.5769C9.98001 11.9029 10.024 12.2389 10.02 12.5769C10.0206 12.8115 10.0005 13.0458 9.96001 13.2769L14.86 15.4969C15.3782 14.8456 16.0867 14.3722 16.8867 14.1426C17.6866 13.913 18.5383 13.9386 19.3231 14.216C20.1078 14.4933 20.7864 15.0086 21.2645 15.6899C21.7425 16.3712 21.9962 17.1846 21.99 18.0169L21.96 17.9769Z" fill="#FF6E00"/>
</svg>
