<svg width="16" height="19" viewBox="0 0 16 19" fill="none" xmlns="http://www.w3.org/2000/svg">
<path d="M2.6875 8.12501C2.60462 8.12501 2.52513 8.15794 2.46653 8.21654C2.40792 8.27515 2.375 8.35463 2.375 8.43751V16.5625C2.375 16.735 2.515 16.875 2.6875 16.875H13.3125C13.3954 16.875 13.4749 16.8421 13.5335 16.7835C13.5921 16.7249 13.625 16.6454 13.625 16.5625V8.43751C13.625 8.35463 13.5921 8.27515 13.5335 8.21654C13.4749 8.15794 13.3954 8.12501 13.3125 8.12501H12.0625C11.8139 8.12501 11.5754 8.02624 11.3996 7.85043C11.2238 7.67461 11.125 7.43615 11.125 7.18751C11.125 6.93887 11.2238 6.70042 11.3996 6.5246C11.5754 6.34879 11.8139 6.25001 12.0625 6.25001H13.3125C14.52 6.25001 15.5 7.23001 15.5 8.43751V16.5625C15.5 17.1427 15.2695 17.6991 14.8593 18.1093C14.4491 18.5195 13.8927 18.75 13.3125 18.75H2.6875C2.10734 18.75 1.55094 18.5195 1.1407 18.1093C0.730468 17.6991 0.5 17.1427 0.5 16.5625V8.43751C0.5 7.23001 1.48 6.25001 2.6875 6.25001H3.9375C4.18614 6.25001 4.4246 6.34879 4.60041 6.5246C4.77623 6.70042 4.875 6.93887 4.875 7.18751C4.875 7.43615 4.77623 7.67461 4.60041 7.85043C4.4246 8.02624 4.18614 8.12501 3.9375 8.12501H2.6875ZM7.77875 0.221264C7.80778 0.192162 7.84226 0.169073 7.88023 0.153319C7.91819 0.137565 7.9589 0.129456 8 0.129456C8.0411 0.129456 8.08181 0.137565 8.11977 0.153319C8.15774 0.169073 8.19222 0.192162 8.22125 0.221264L11.8412 3.84126C11.8851 3.88497 11.9149 3.9407 11.927 4.00139C11.9391 4.06209 11.9329 4.12501 11.9092 4.18218C11.8855 4.23935 11.8454 4.2882 11.7939 4.32253C11.7424 4.35686 11.6819 4.37512 11.62 4.37501H8.9375V11.5625C8.9375 11.8112 8.83873 12.0496 8.66291 12.2254C8.4871 12.4012 8.24864 12.5 8 12.5C7.75136 12.5 7.5129 12.4012 7.33709 12.2254C7.16127 12.0496 7.0625 11.8112 7.0625 11.5625V4.37501H4.38C4.31811 4.37512 4.25758 4.35686 4.20609 4.32253C4.1546 4.2882 4.11446 4.23935 4.09076 4.18218C4.06706 4.12501 4.06087 4.06209 4.07298 4.00139C4.08508 3.9407 4.11493 3.88497 4.15875 3.84126L7.77875 0.221264Z" fill="black"/>
</svg>
