<svg width="16" height="15" viewBox="0 0 16 15" fill="none" xmlns="http://www.w3.org/2000/svg">
<g clip-path="url(#clip0_125_902)">
<path d="M6 -7.01298e-06C5.5336 -0.0111601 5.06968 0.071071 4.63552 0.241849C4.20137 0.412627 3.80575 0.668504 3.47194 0.994427C3.13813 1.32035 2.87287 1.70974 2.69176 2.13969C2.51065 2.56963 2.41735 3.03146 2.41735 3.49799C2.41735 3.96453 2.51065 4.42635 2.69176 4.8563C2.87287 5.28625 3.13813 5.67564 3.47194 6.00156C3.80575 6.32748 4.20137 6.58336 4.63552 6.75414C5.06968 6.92491 5.5336 7.00715 6 6.99599C6.4664 7.00715 6.93032 6.92491 7.36448 6.75414C7.79863 6.58336 8.19425 6.32748 8.52806 6.00156C8.86187 5.67564 9.12713 5.28625 9.30824 4.8563C9.48935 4.42635 9.58265 3.96453 9.58265 3.49799C9.58265 3.03146 9.48935 2.56963 9.30824 2.13969C9.12713 1.70974 8.86187 1.32035 8.52806 0.994427C8.19425 0.668504 7.79863 0.412627 7.36448 0.241849C6.93032 0.071071 6.4664 -0.0111601 6 -7.01298e-06ZM4 8.99399C3.07174 8.99399 2.1815 9.36274 1.52513 10.0191C0.868749 10.6755 0.5 11.5657 0.5 12.494L0.5 14.991H11.5V12.494C11.5 11.5657 11.1313 10.6755 10.4749 10.0191C9.8185 9.36274 8.92826 8.99399 8 8.99399H4ZM13 9.99999H12.5V15H15.5V12.5C15.5 11.837 15.2366 11.2011 14.7678 10.7322C14.2989 10.2634 13.663 9.99999 13 9.99999Z" fill="#D61212"/>
<path d="M12 4C11.337 4 10.7011 4.26339 10.2322 4.73223C9.76339 5.20107 9.5 5.83696 9.5 6.5C9.5 7.16304 9.76339 7.79893 10.2322 8.26777C10.7011 8.73661 11.337 9 12 9C12.663 9 13.2989 8.73661 13.7678 8.26777C14.2366 7.79893 14.5 7.16304 14.5 6.5C14.5 5.83696 14.2366 5.20107 13.7678 4.73223C13.2989 4.26339 12.663 4 12 4Z" fill="#D61212"/>
</g>
<defs>
<clipPath id="clip0_125_902">
<rect width="15" height="15" fill="white" transform="translate(0.5)"/>
</clipPath>
</defs>
</svg>
