<svg width="23" height="23" viewBox="0 0 23 23" fill="none" xmlns="http://www.w3.org/2000/svg">
<g clip-path="url(#clip0_191_273)">
<path d="M0.490732 11.3624C0.490193 13.2948 0.999068 15.1817 1.96669 16.8448L0.398193 22.5273L6.25888 21.0025C7.87987 21.8781 9.69607 22.3369 11.5417 22.337H11.5465C17.6393 22.337 22.5989 17.4176 22.6016 11.371C22.6027 8.441 21.4538 5.68581 19.3664 3.61296C17.2793 1.54028 14.5036 0.398218 11.5461 0.396881C5.45262 0.396881 0.493338 5.31603 0.490822 11.3624" fill="url(#paint0_linear_191_273)"/>
<path d="M0.0961328 11.3588C0.0955039 13.3608 0.622617 15.3151 1.62473 17.0378L0 22.924L6.07083 21.3445C7.74354 22.2495 9.62685 22.7266 11.5432 22.7273H11.5482C17.8595 22.7273 22.9973 17.6309 23 11.3679C23.0011 8.3326 21.8108 5.47837 19.6488 3.33126C17.4866 1.18441 14.6116 0.00124806 11.5482 0C5.23573 0 0.0986484 5.09566 0.0961328 11.3588ZM3.71154 16.7411L3.48486 16.3841C2.53198 14.8807 2.02903 13.1434 2.02975 11.3595C2.03173 6.15375 6.30146 1.91845 11.5518 1.91845C14.0943 1.91952 16.4838 2.90299 18.281 4.68736C20.0782 6.47191 21.0671 8.84412 21.0665 11.3672C21.0641 16.5729 16.7943 20.8088 11.5482 20.8088H11.5444C9.83618 20.8079 8.16087 20.3527 6.69983 19.4925L6.35213 19.2879L2.74958 20.2251L3.71154 16.7411Z" fill="url(#paint1_linear_191_273)"/>
<path d="M8.68601 6.61009C8.47164 6.13734 8.24604 6.1278 8.04219 6.11951C7.87526 6.11238 7.68443 6.11292 7.49378 6.11292C7.30295 6.11292 6.9929 6.18415 6.73083 6.46808C6.46848 6.75228 5.72925 7.43907 5.72925 8.83592C5.72925 10.2329 6.75463 11.5828 6.89758 11.7724C7.0407 11.9617 8.8771 14.92 11.7855 16.058C14.2027 17.0038 14.6946 16.8157 15.2192 16.7682C15.7439 16.721 16.9122 16.0816 17.1505 15.4186C17.3891 14.7557 17.3891 14.1875 17.3176 14.0688C17.246 13.9505 17.0552 13.8794 16.7691 13.7375C16.4828 13.5955 15.0761 12.9086 14.8138 12.8139C14.5515 12.7192 14.3607 12.6719 14.1699 12.9562C13.9791 13.2401 13.4311 13.8794 13.2641 14.0688C13.0972 14.2586 12.9302 14.2822 12.6442 14.1402C12.3578 13.9977 11.4363 13.6983 10.343 12.7311C9.49235 11.9785 8.91807 11.0492 8.75114 10.7649C8.58421 10.481 8.73326 10.3272 8.87674 10.1857C9.00531 10.0585 9.16299 9.85416 9.3062 9.68844C9.44887 9.52262 9.49649 9.40432 9.5919 9.21497C9.6874 9.02545 9.63961 8.85963 9.56818 8.71762C9.49649 8.57561 8.94044 7.17145 8.68601 6.61009Z" fill="white"/>
</g>
<defs>
<linearGradient id="paint0_linear_191_273" x1="1110.57" y1="2213.43" x2="1110.57" y2="0.396881" gradientUnits="userSpaceOnUse">
<stop stop-color="#1FAF38"/>
<stop offset="1" stop-color="#60D669"/>
</linearGradient>
<linearGradient id="paint1_linear_191_273" x1="1150" y1="2292.4" x2="1150" y2="0" gradientUnits="userSpaceOnUse">
<stop stop-color="#F9F9F9"/>
<stop offset="1" stop-color="white"/>
</linearGradient>
<clipPath id="clip0_191_273">
<rect width="23" height="23" fill="white"/>
</clipPath>
</defs>
</svg>
