<svg width="21" height="20" viewBox="0 0 21 20" fill="none" xmlns="http://www.w3.org/2000/svg">
<path d="M10.5 13.75C10.8315 13.75 11.1495 13.8817 11.3839 14.1161C11.6183 14.3505 11.75 14.6685 11.75 15C11.75 15.3315 11.6183 15.6495 11.3839 15.8839C11.1495 16.1183 10.8315 16.25 10.5 16.25C10.1685 16.25 9.85053 16.1183 9.61611 15.8839C9.38169 15.6495 9.25 15.3315 9.25 15C9.25 14.6685 9.38169 14.3505 9.61611 14.1161C9.85053 13.8817 10.1685 13.75 10.5 13.75ZM10.5 10.4167C11.1019 10.4161 11.698 10.5344 12.2541 10.7646C12.8102 10.9948 13.3154 11.3325 13.7408 11.7583C13.9684 11.9847 14.1002 12.2899 14.1089 12.6108C14.1176 12.9316 14.0026 13.2436 13.7876 13.4819C13.5726 13.7203 13.2741 13.8668 12.9541 13.8911C12.634 13.9154 12.3169 13.8156 12.0683 13.6125L11.9733 13.5267C11.7802 13.3328 11.5505 13.1791 11.2977 13.0744C11.0448 12.9697 10.7737 12.9161 10.5 12.9167C9.98166 12.9167 9.50916 13.1042 9.14416 13.4175L9.0275 13.5267C8.79311 13.7612 8.47517 13.893 8.14362 13.893C7.81208 13.8931 7.49408 13.7615 7.25958 13.5271C7.02508 13.2927 6.8933 12.9748 6.89322 12.6432C6.89315 12.3117 7.02478 11.9937 7.25916 11.7592C7.68442 11.3331 8.18961 10.9952 8.74575 10.7648C9.30188 10.5345 9.89803 10.4161 10.5 10.4167ZM10.5 7.08334C12.6858 7.08334 14.6667 7.97084 16.0975 9.40251C16.2203 9.51694 16.3188 9.65494 16.3871 9.80828C16.4555 9.96161 16.4922 10.1271 16.4951 10.295C16.4981 10.4628 16.4672 10.6295 16.4044 10.7852C16.3415 10.9408 16.2479 11.0822 16.1292 11.2009C16.0105 11.3196 15.8691 11.4132 15.7135 11.476C15.5578 11.5389 15.3911 11.5698 15.2233 11.5668C15.0555 11.5639 14.8899 11.5271 14.7366 11.4588C14.5833 11.3905 14.4453 11.292 14.3308 11.1692C13.8284 10.6653 13.2313 10.2658 12.5738 9.99363C11.9164 9.72146 11.2116 9.58203 10.5 9.58334C9.78852 9.58224 9.08385 9.72187 8.42654 9.99417C7.76923 10.2665 7.17226 10.6661 6.67 11.17C6.43561 11.4045 6.11767 11.5363 5.78612 11.5364C5.45458 11.5364 5.13658 11.4048 4.90208 11.1704C4.66758 10.936 4.5358 10.6181 4.53572 10.2866C4.53565 9.955 4.66728 9.637 4.90166 9.40251C5.63612 8.66633 6.50877 8.08248 7.46949 7.68449C8.43022 7.2865 9.4601 7.08221 10.5 7.08334ZM10.5 3.75001C13.6058 3.75001 16.4208 5.01084 18.455 7.04501C18.5711 7.16112 18.6631 7.29895 18.7259 7.45063C18.7887 7.60232 18.821 7.76488 18.8209 7.92905C18.8209 8.09322 18.7885 8.25577 18.7257 8.40742C18.6628 8.55908 18.5707 8.69687 18.4546 8.81292C18.3385 8.92898 18.2006 9.02103 18.049 9.08382C17.8973 9.1466 17.7347 9.1789 17.5705 9.17886C17.4064 9.17882 17.2438 9.14645 17.0922 9.08359C16.9405 9.02073 16.8027 8.92862 16.6867 8.81251C15.8752 7.99871 14.9109 7.35336 13.8492 6.91359C12.7874 6.47382 11.6492 6.2483 10.5 6.25001C8.08333 6.25001 5.8975 7.22834 4.3125 8.81251C4.19771 8.93392 4.05976 9.03108 3.90678 9.09826C3.7538 9.16544 3.58891 9.20127 3.42185 9.20363C3.25479 9.20599 3.08895 9.17484 2.93413 9.11202C2.77932 9.04919 2.63867 8.95596 2.5205 8.83785C2.40233 8.71973 2.30904 8.57913 2.24614 8.42434C2.18324 8.26956 2.15201 8.10373 2.15429 7.93667C2.15658 7.76961 2.19233 7.6047 2.25943 7.45169C2.32654 7.29868 2.42364 7.16068 2.545 7.04584C3.58856 5.99963 4.82853 5.1699 6.19369 4.6043C7.55885 4.0387 9.02231 3.74838 10.5 3.75001Z" fill="#D61212"/>
</svg>
