<svg width="25" height="25" viewBox="0 0 25 25" fill="none" xmlns="http://www.w3.org/2000/svg">
<path d="M1.04166 9.375L3.12499 11.4583C8.30207 6.28125 16.6979 6.28125 21.875 11.4583L23.9583 9.375C17.6354 3.05208 7.37499 3.05208 1.04166 9.375ZM9.37499 17.7083L12.5 20.8333L15.625 17.7083C15.215 17.2973 14.7279 16.9711 14.1917 16.7486C13.6555 16.526 13.0806 16.4115 12.5 16.4115C11.9194 16.4115 11.3445 16.526 10.8083 16.7486C10.272 16.9711 9.78498 17.2973 9.37499 17.7083ZM5.20832 13.5417L7.29166 15.625C8.67339 14.2444 10.5467 13.4689 12.5 13.4689C14.4532 13.4689 16.3266 14.2444 17.7083 15.625L19.7917 13.5417C15.7708 9.52083 9.23957 9.52083 5.20832 13.5417Z" fill="black"/>
</svg>
